<svg width="24" height="24" viewBox="0 0 24 24" fill="none" xmlns="http://www.w3.org/2000/svg">
    <path d="M10.5 19.2534C11.3284 19.2534 12 19.925 12 20.7534C12 21.5818 11.3284 22.2534 10.5 22.2534C9.67157 22.2534 9 21.5818 9 20.7534C9 19.925 9.67157 19.2534 10.5 19.2534ZM18.5 19.2534C19.3284 19.2534 20 19.925 20 20.7534C20 21.5818 19.3284 22.2534 18.5 22.2534C17.6716 22.2534 17 21.5818 17 20.7534C17 19.925 17.6716 19.2534 18.5 19.2534ZM4.77637 1.75342C4.96612 1.78547 5.12414 1.92517 5.17578 2.11572L6.16211 5.7583H21.6006C21.7509 5.75836 21.8934 5.82631 21.9883 5.94287C22.083 6.05943 22.1203 6.21278 22.0898 6.35986L20.3711 14.6704C20.3276 14.8796 20.1554 15.0383 19.9434 15.0649L8.48047 16.4976C8.23341 16.5284 8.00085 16.3725 7.93555 16.1323L5.29688 6.38916L4.30957 2.74658H2.40039C2.12441 2.74658 1.90065 2.5225 1.90039 2.24658C1.90039 1.97044 2.12425 1.74561 2.40039 1.74561H4.69336L4.77637 1.75342ZM8.78711 15.4507L19.4639 14.1167L20.9863 6.7583H6.43262L8.78711 15.4507Z" fill="#1B1F27"/>
</svg>
