<svg width="25" height="24" viewBox="0 0 25 24" fill="none" xmlns="http://www.w3.org/2000/svg">
    <g clip-path="url(#clip0_15729_2918)">
        <path d="M8.66699 3.5C12.8091 3.5 16.167 6.85786 16.167 11C16.167 12.8911 15.4655 14.6173 14.3105 15.9365L18.0205 19.6465C18.2158 19.8417 18.2158 20.1583 18.0205 20.3535C17.8252 20.5488 17.5087 20.5488 17.3135 20.3535L13.6035 16.6436C12.2843 17.7985 10.5581 18.5 8.66699 18.5C4.52486 18.5 1.16699 15.1421 1.16699 11C1.16699 6.85786 4.52486 3.5 8.66699 3.5ZM8.66699 4.5C5.07714 4.5 2.16699 7.41015 2.16699 11C2.16699 14.5899 5.07714 17.5 8.66699 17.5C12.2568 17.5 15.167 14.5899 15.167 11C15.167 7.41015 12.2568 4.5 8.66699 4.5ZM23.667 15.5C23.9431 15.5 24.167 15.7239 24.167 16C24.167 16.2761 23.9431 16.5 23.667 16.5H20.667C20.3909 16.5 20.167 16.2761 20.167 16C20.167 15.7239 20.3909 15.5 20.667 15.5H23.667ZM23.667 11.5C23.9431 11.5 24.167 11.7239 24.167 12C24.167 12.2761 23.9431 12.5 23.667 12.5H18.667C18.3909 12.5 18.167 12.2761 18.167 12C18.167 11.7239 18.3909 11.5 18.667 11.5H23.667ZM23.667 7.5C23.9431 7.5 24.167 7.72386 24.167 8C24.167 8.27614 23.9431 8.5 23.667 8.5H18.667C18.3909 8.5 18.167 8.27614 18.167 8C18.167 7.72386 18.3909 7.5 18.667 7.5H23.667Z" fill="#1B1F27"/>
    </g>
    <defs>
        <clipPath id="clip0_15729_2918">
            <rect width="24" height="24" fill="white" transform="translate(0.666992)"/>
        </clipPath>
    </defs>
</svg>
