<svg width="24" height="24" viewBox="0 0 24 24" fill="none" xmlns="http://www.w3.org/2000/svg">
    <path d="M11.1566 5.68682H7.81685C6.48083 5.68682 5.81281 5.68682 5.30252 5.94683C4.85366 6.17554 4.48872 6.54048 4.26001 6.98935C4 7.49964 4 8.16765 4 9.50367V16.1832C4 17.5192 4 18.1872 4.26001 18.6975C4.48872 19.1463 4.85366 19.5113 5.30252 19.74C5.81281 20 6.48082 20 7.81685 20H14.4963C15.8324 20 16.5004 20 17.0107 19.74C17.4595 19.5113 17.8245 19.1463 18.0532 18.6975C18.3132 18.1872 18.3132 17.5192 18.3132 16.1832V12.8434M18.3855 8L19.5059 6.87959C20.1647 6.22084 20.1647 5.15281 19.5059 4.49406C18.8472 3.83531 17.7792 3.83531 17.1204 4.49406L15.9276 5.68682M18.3855 8L11.9019 14.4837C11.6268 14.7587 11.4893 14.8962 11.3288 14.9946C11.1865 15.0818 11.0314 15.146 10.8691 15.185C10.6861 15.2289 10.4916 15.2289 10.1026 15.2289H8.77104V13.8974C8.77104 13.5084 8.77104 13.3139 8.81498 13.1309C8.85394 12.9686 8.9182 12.8135 9.00539 12.6712C9.10374 12.5107 9.24127 12.3732 9.51633 12.0981L11.6145 10L15.9276 5.68682M18.3855 8L15.9276 5.68682" stroke="black" stroke-linecap="round" stroke-linejoin="round"/>
</svg>
