<svg width="25" height="24" viewBox="0 0 25 24" fill="none" xmlns="http://www.w3.org/2000/svg">
    <path d="M17.2832 3.5C20.3943 3.5001 22.833 5.78219 22.833 8.5C22.8329 11.464 20.973 14.3401 17.7188 17.0527C16.8926 17.7409 16.0164 18.3682 15.1279 18.9473L14.2373 19.5107C13.8188 19.767 13.4317 19.9968 13.0879 20.1865C12.8424 20.3221 12.7391 20.3871 12.6582 20.4277H12.6572C12.4669 20.5239 12.1991 20.5239 12.0088 20.4277H12.0078C11.927 20.3871 11.8236 20.3221 11.5781 20.1865C11.4062 20.0916 11.2233 19.9862 11.0312 19.873L10.4287 19.5107C9.23913 18.7796 8.04872 17.9703 6.94727 17.0527C3.69304 14.3401 1.83314 11.464 1.83301 8.5C1.83301 5.78219 4.27172 3.5001 7.38281 3.5C9.23604 3.5 10.9395 4.35003 11.9795 5.62793L12.3594 6.09375L12.748 5.63574C13.8252 4.36743 15.5427 3.5 17.2832 3.5Z" fill="white" stroke="#1B1F27"/>
</svg>
