<svg width="196" height="196" viewBox="0 0 196 196" fill="none" xmlns="http://www.w3.org/2000/svg">
    <g clip-path="url(#clip0_17095_41347)">
        <path d="M183.034 40.0566V193H12.9658V40.0566L97.9707 3.26855L183.034 40.0566Z" stroke="#6C7381" stroke-width="6"/>
        <path d="M138.198 41.5883C138.199 41.604 138.2 41.6201 138.201 41.6361C138.239 42.4169 138.282 43.5116 138.331 44.8451C138.429 47.5005 138.552 51.0697 138.707 54.8177C139.012 62.1753 139.457 70.662 140.154 74.2582V74.2592C140.929 78.3211 142.843 83.5926 144.593 87.975C145.481 90.1985 146.35 92.2504 147.051 93.8802C147.771 95.5552 148.272 96.6878 148.482 97.2094V97.2084C149.452 99.6144 153.475 109.213 154.458 115.489L154.459 115.49C154.966 118.717 155.222 126.638 155.301 134.489C155.379 142.291 155.281 149.556 155.148 151.355V151.368L155.147 151.379C155.045 152.944 155.046 156.949 155.028 160.766C155.01 164.728 154.97 168.477 154.824 169.983C154.779 170.333 154.663 170.644 154.527 170.893C154.502 170.939 154.476 170.979 154.453 171.016C154.373 171.039 154.276 171.068 154.158 171.097C153.582 171.238 152.766 171.379 151.741 171.511C149.704 171.774 147.112 171.968 144.52 172.11C141.94 172.251 139.414 172.337 137.529 172.387C136.588 172.412 135.809 172.428 135.267 172.438C134.996 172.443 134.784 172.446 134.641 172.449C134.569 172.45 134.514 172.451 134.478 172.452C134.465 172.452 134.454 172.451 134.446 172.452C134.411 172.451 134.357 172.45 134.287 172.449C134.147 172.446 133.94 172.443 133.675 172.438C133.144 172.428 132.382 172.412 131.461 172.387C129.617 172.337 127.145 172.251 124.619 172.11C122.081 171.968 119.544 171.774 117.549 171.512C116.545 171.38 115.748 171.24 115.185 171.1C115.049 171.066 114.941 171.035 114.856 171.009C114.835 170.975 114.811 170.936 114.787 170.893C114.666 170.671 114.561 170.382 114.531 170.047L114.529 170.031L114.528 170.014L114.477 169.354C114.369 167.584 114.337 164.259 114.321 160.766C114.304 156.95 114.305 152.943 114.201 151.377L114.2 151.367L114.199 151.357L114.152 150.435C114.046 147.731 113.979 141.314 114.047 134.488C114.12 127.128 114.349 119.707 114.795 116.149L114.888 115.49C115.873 109.215 119.895 99.6097 120.865 97.2094L120.866 97.2074C121.076 96.6875 121.575 95.5555 122.296 93.8802C122.997 92.2505 123.866 90.1985 124.754 87.975C126.504 83.5926 128.418 78.3208 129.193 74.2592C129.891 70.6657 130.348 62.1815 130.659 54.8197C130.818 51.0691 130.942 47.5025 131.038 44.8422C131.086 43.5077 131.128 42.4092 131.162 41.6234C131.163 41.6116 131.164 41.5999 131.164 41.5883H138.198ZM72.7314 41.5883C72.7324 41.6072 72.7343 41.6264 72.7354 41.6459C72.7755 42.4254 72.8212 43.5192 72.874 44.8529C72.9792 47.5077 73.1115 51.0778 73.2783 54.8265C73.6057 62.1847 74.0817 70.7011 74.834 74.309C75.6699 78.3874 77.7255 83.6653 79.5986 88.0424C80.5507 90.2672 81.482 92.3204 82.2334 93.9506C83.0067 95.6282 83.5418 96.7582 83.7666 97.2777C84.8105 99.6896 89.1113 109.271 90.1602 115.521L90.1611 115.523C90.702 118.732 90.9755 126.635 91.0596 134.491C91.1431 142.294 91.0372 149.552 90.8965 151.341L90.8955 151.353V151.365C90.7843 152.939 90.7854 156.955 90.7666 160.765C90.7471 164.729 90.7047 168.459 90.5498 169.955C90.5057 170.278 90.3894 170.572 90.2471 170.817C90.2116 170.878 90.1755 170.929 90.1445 170.974C90.0362 171.006 89.8952 171.045 89.7158 171.086C89.078 171.232 88.188 171.374 87.083 171.507C84.8856 171.771 82.0964 171.967 79.3154 172.109C76.5462 172.25 73.8354 172.337 71.8135 172.387C70.8036 172.412 69.9679 172.428 69.3857 172.438C69.0947 172.443 68.8671 172.446 68.7129 172.449C68.6359 172.45 68.5772 172.451 68.5381 172.452C68.5185 172.452 68.5028 172.451 68.4932 172.452C68.4549 172.451 68.3976 172.45 68.3223 172.449C68.1715 172.446 67.9488 172.443 67.6641 172.438C67.0946 172.428 66.2771 172.412 65.2891 172.387C63.3107 172.337 60.6582 172.251 57.9473 172.11C55.2244 171.968 52.4934 171.772 50.3408 171.508C49.2586 171.376 48.3884 171.233 47.7646 171.088C47.5638 171.042 47.4119 170.998 47.3018 170.964C47.2716 170.922 47.2376 170.872 47.2041 170.815C47.0773 170.597 46.9752 170.329 46.9463 170.028L46.9443 170.01L46.9424 169.994L46.8887 169.338C46.7744 167.579 46.7399 164.263 46.7227 160.765C46.7039 156.955 46.705 152.939 46.5938 151.365V151.352L46.5918 151.339L46.5664 150.941C46.4384 148.641 46.3496 141.807 46.4277 134.491C46.5116 126.635 46.7853 118.732 47.3262 115.523V115.522C48.3771 109.273 52.6773 99.6884 53.7207 97.2777L53.7217 97.2758C53.9455 96.7576 54.479 95.628 55.252 93.9506C56.003 92.3205 56.9347 90.2672 57.8867 88.0424C59.7612 83.6616 61.8178 78.3772 62.6523 74.2972C63.404 70.6841 63.8943 62.1827 64.2275 54.8295C64.3976 51.0778 64.531 47.5102 64.6338 44.85C64.6854 43.5153 64.7287 42.4172 64.7656 41.6322C64.7663 41.6174 64.7669 41.6028 64.7676 41.5883H72.7314Z" stroke="#6C7381" stroke-width="6"/>
    </g>
    <defs>
        <clipPath id="clip0_17095_41347">
            <rect width="196" height="196" fill="white"/>
        </clipPath>
    </defs>
</svg>
