<svg width="28" height="24" viewBox="0 0 28 24" fill="none" xmlns="http://www.w3.org/2000/svg">
<path d="M20.7539 0.50293C21.7082 0.529699 22.6468 0.752036 23.5127 1.15625C24.3786 1.56052 25.1537 2.13799 25.79 2.85352H25.7891C28.3458 5.71517 27.9257 10.1424 25.2705 12.8291L25.2695 12.8301L15.1123 23.0566L15.1113 23.0576C14.8278 23.3404 14.4435 23.5 14.043 23.5C13.6425 23.4999 13.2591 23.3403 12.9756 23.0576L12.9736 23.0566L2.55371 12.5654C1.87928 11.8859 1.34957 11.0747 0.99707 10.1826C0.644599 9.29053 0.476421 8.33549 0.50293 7.37598C0.529465 6.4165 0.750171 5.47255 1.15137 4.60156C1.5526 3.73052 2.12596 2.95033 2.83691 2.30957C5.59321 -0.185497 9.81123 0.135356 12.499 2.58887L12.7549 2.83301L12.7568 2.83496L14.043 4.14062L15.5938 2.57031L15.5947 2.56836C16.2696 1.8895 17.075 1.35622 17.9619 1.00098C18.849 0.645701 19.7994 0.4762 20.7539 0.50293Z" fill="#FB4245" stroke="white" stroke-linecap="round" stroke-linejoin="round"/>
</svg>
