<?xml version="1.0" encoding="UTF-8"?>
<svg version="1.1" xmlns="http://www.w3.org/2000/svg" width="1064" height="355">
    <path d="M0 0 C4.26361098 3.50222731 7.80823154 7.28696642 11.20874023 11.61035156 C11.8287793 12.32191406 12.44881836 13.03347656 13.08764648 13.76660156 C32.29124345 36.31485632 39.3974336 64.46903825 37.20874023 93.61035156 C34.60369686 115.78451203 25.96958696 135.89586336 11.20874023 152.61035156 C10.43530273 153.61582031 10.43530273 153.61582031 9.64624023 154.64160156 C-5.06971657 173.34313001 -31.54821611 185.20621761 -54.58032227 188.38769531 C-83.26833262 191.27677056 -112.13554014 184.73949517 -134.94238281 166.73095703 C-146.91861218 156.88461102 -156.49611063 146.34475699 -163.79125977 132.61035156 C-164.12738281 131.97935547 -164.46350586 131.34835938 -164.80981445 130.69824219 C-176.97045048 107.1575927 -179.91176471 78.39595969 -172.52758789 52.91503906 C-167.52352864 37.25246634 -160.27345149 22.80747381 -148.86938477 10.82910156 C-146.73556252 8.6168304 -146.73556252 8.6168304 -144.80297852 6.06738281 C-135.8844713 -4.82531824 -121.61364678 -12.14755492 -108.79125977 -17.38964844 C-107.95594727 -17.74800781 -107.12063477 -18.10636719 -106.26000977 -18.47558594 C-70.7207421 -32.7127022 -29.32713161 -23.12597682 0 0 Z M-106.79125977 49.61035156 C-116.32193451 60.8904427 -119.98559152 73.98831851 -118.79125977 88.61035156 C-116.15958016 102.83093352 -109.24461537 114.87980712 -97.37719727 123.32910156 C-85.25234811 130.98690103 -71.87591152 133.59495 -57.79125977 130.48535156 C-45.39094505 127.02479862 -34.31748565 119.69059816 -27.41625977 108.67285156 C-19.99844313 95.16107792 -17.94852946 82.87889888 -21.76000977 67.84472656 C-25.83671752 55.0586886 -34.82944656 43.83517769 -46.79125977 37.61035156 C-68.41640099 28.23040886 -90.48568593 32.4278393 -106.79125977 49.61035156 Z " fill="#F9DC2F" transform="translate(261.791259765625,95.3896484375)"/>
    <path d="M0 0 C0.34804688 -0.81726563 0.69609375 -1.63453125 1.0546875 -2.4765625 C3 -5 3 -5 6.3203125 -5.5234375 C7.57585937 -5.47445312 8.83140625 -5.42546875 10.125 -5.375 C11.38570312 -5.34148437 12.64640625 -5.30796875 13.9453125 -5.2734375 C17 -5 17 -5 18 -4 C18.11633003 -1.55938517 18.16799126 0.85331844 18.17700195 3.29516602 C18.18357315 4.05965057 18.19014435 4.82413513 18.19691467 5.61178589 C18.21672509 8.15916031 18.22833817 10.70647506 18.23828125 13.25390625 C18.24235678 14.12665632 18.2464323 14.99940639 18.25063133 15.89860344 C18.27154233 20.53355551 18.28581227 25.16847768 18.29516602 29.8034668 C18.30613562 34.55400892 18.34040916 39.30407022 18.38033772 44.05444431 C18.40673793 47.73435724 18.41487921 51.41416082 18.41844749 55.09416008 C18.42326724 56.84214396 18.43474635 58.59012452 18.45348549 60.3380146 C18.61369629 76.29654579 17.46100381 91.58441061 6.2578125 103.91796875 C-4.51364903 114.39891369 -19.24896293 116.00036504 -33.625 116.25 C-40.12383148 116.15482883 -46.7228036 115.80944095 -53 114 C-54.51714839 110.96570323 -54.14363916 107.82398333 -54.125 104.5 C-54.12886719 103.81035156 -54.13273437 103.12070313 -54.13671875 102.41015625 C-54.12666646 97.25333293 -54.12666646 97.25333293 -53 95 C-51.72322388 95.0314209 -51.72322388 95.0314209 -50.4206543 95.06347656 C-47.20943334 95.13236162 -43.99859357 95.18214051 -40.78686523 95.21972656 C-39.406855 95.2396267 -38.02692663 95.2667574 -36.6472168 95.30175781 C-27.59920385 95.52524669 -20.23237485 94.89196106 -12 91 C-11.26531494 90.66419922 -10.53062988 90.32839844 -9.77368164 89.98242188 C-6.25027032 88.03084484 -5.5531609 83.89158824 -4.375 80.25 C-4.11460937 79.45078125 -3.85421875 78.6515625 -3.5859375 77.828125 C-3.39257812 77.22484375 -3.19921875 76.6215625 -3 76 C-4.11375 76.61875 -5.2275 77.2375 -6.375 77.875 C-17.43597332 83.29931676 -30.17744045 83.198419 -41.8125 79.375 C-52.82350875 74.78435688 -61.21442565 67.51754228 -66.125 56.46875 C-66.87095184 54.31696586 -67.49334322 52.21924044 -68 50 C-68.18175781 49.23558594 -68.36351562 48.47117188 -68.55078125 47.68359375 C-70.82203009 34.11535069 -68.7820489 20.84895404 -60.94140625 9.47265625 C-53.743309 0.30485834 -43.99992393 -4.83617178 -32.5234375 -6.71875 C-20.90612731 -8.01355857 -9.89107028 -6.5191145 0 0 Z M-44.5 20.9375 C-49.47594545 27.9819344 -49.81996267 35.65038012 -49 44 C-48.06508635 47.29147434 -46.75831418 50.073575 -45 53 C-44.46375 53.9075 -43.9275 54.815 -43.375 55.75 C-37.86120139 60.97359868 -32.02316782 63.31378958 -24.4375 63.5625 C-16.6316575 63.20477044 -10.88328897 61.2526959 -5.296875 55.6875 C-0.61929057 50.16617011 -0.96610906 44.45337024 -1.125 37.5 C-1.08439453 35.72302734 -1.08439453 35.72302734 -1.04296875 33.91015625 C-1.0987412 26.76331574 -1.99586655 22.59987335 -7.15161133 17.51953125 C-13.58720174 12.22893361 -19.17062863 11.28135919 -27.5234375 11.55859375 C-34.72778 12.4733024 -39.96370889 15.25623157 -44.5 20.9375 Z " fill="#000000" transform="translate(519,138)"/>
    <path d="M0 0 C0.34804688 -0.81726563 0.69609375 -1.63453125 1.0546875 -2.4765625 C3 -5 3 -5 6.3203125 -5.5234375 C7.57585937 -5.47445312 8.83140625 -5.42546875 10.125 -5.375 C11.38570312 -5.34148437 12.64640625 -5.30796875 13.9453125 -5.2734375 C17 -5 17 -5 18 -4 C18.11103127 -1.5129671 18.15738824 0.94655326 18.16113281 3.43457031 C18.16858017 4.60315582 18.16858017 4.60315582 18.17617798 5.79534912 C18.19085518 8.38961661 18.19761564 10.98382269 18.203125 13.578125 C18.20887798 15.38401287 18.2146357 17.18990073 18.22039795 18.99578857 C18.23092783 22.79569788 18.23675546 26.59558595 18.24023438 30.39550781 C18.24568142 35.23369291 18.26961873 40.07159117 18.29820633 44.90968704 C18.31697087 48.64866915 18.3220459 52.38758462 18.32357025 56.1266098 C18.32657326 57.90775853 18.33452101 59.68890676 18.34775543 61.47000885 C18.44295642 75.28428042 17.89983429 88.12524909 10 100 C9.443125 100.886875 8.88625 101.77375 8.3125 102.6875 C-2.73852291 113.73852291 -18.47872964 115.93222117 -33.375 116.1875 C-46.82629431 116.06558495 -46.82629431 116.06558495 -52 114 C-54.37610658 110.84876109 -54.23989805 107.78161179 -54.1875 103.9375 C-54.18105469 102.89464844 -54.17460938 101.85179687 -54.16796875 100.77734375 C-54 98 -54 98 -53 95 C-51.72322388 95.0314209 -51.72322388 95.0314209 -50.4206543 95.06347656 C-47.20943334 95.13236162 -43.99859357 95.18214051 -40.78686523 95.21972656 C-39.406855 95.2396267 -38.02692663 95.2667574 -36.6472168 95.30175781 C-26.48711913 95.55271555 -17.16380721 95.19559336 -9 88.5625 C-5.79847822 84.46055022 -3.74387967 81.20715772 -3 76 C-4.11375 76.61875 -5.2275 77.2375 -6.375 77.875 C-16.86896058 83.02125292 -28.3177645 83.04576658 -39.53515625 80.05859375 C-50.53182367 76.16152916 -58.46469008 70.36183016 -64 60 C-70.22037534 46.8016395 -70.85973698 32.82411236 -66 19 C-61.02792921 7.89399995 -53.74343727 0.75108463 -42.49609375 -4.07421875 C-28.30508991 -8.99664817 -12.74652584 -8.40111931 0 0 Z M-42.875 18.8671875 C-48.7376478 26.11093983 -49.85262153 33.89662555 -49 43 C-47.35794144 49.97575244 -44.04275807 55.89887303 -37.9375 59.8125 C-31.02376232 63.91297014 -23.2213332 64.17262111 -15.42578125 62.421875 C-9.1743084 60.02165855 -4.5267326 55.63859731 -1 50 C0.04201294 45.73677279 -0.00857613 41.74177967 -0.1875 37.375 C-0.18169922 36.281875 -0.17589844 35.18875 -0.16992188 34.0625 C-0.30123936 27.06454906 -1.19651874 23.15698421 -6 18 C-8.02963036 16.24305773 -8.02963036 16.24305773 -10.125 15.125 C-10.78757812 14.73570312 -11.45015625 14.34640625 -12.1328125 13.9453125 C-22.05728731 8.9207876 -35.08837924 11.11301099 -42.875 18.8671875 Z " fill="#000000" transform="translate(619,138)"/>
    <path d="M0 0 C7.27573908 6.81634941 11.4308293 13.5788897 12.203125 23.6484375 C12.30457728 29.54957857 12.16794467 33.93128853 9 39 C3.29157721 43.08234707 -3.10753928 42.47570933 -9.8359375 42.51171875 C-11.07042633 42.52966995 -12.30491516 42.54762115 -13.57681274 42.56611633 C-17.50950737 42.62018431 -21.44208083 42.65410502 -25.375 42.6875 C-28.04561882 42.71904465 -30.71615139 42.75516579 -33.38671875 42.79101562 C-39.92437053 42.87590909 -46.46203805 42.94427411 -53 43 C-52.24658243 44.60869931 -51.48122634 46.21181059 -50.7109375 47.8125 C-50.28603027 48.70582031 -49.86112305 49.59914062 -49.42333984 50.51953125 C-46.67807218 55.30373699 -42.97408732 57.2887296 -37.91015625 59.11328125 C-33.24527301 60.37396039 -28.61294815 60.25621365 -23.8125 60.1875 C-22.88791992 60.18177979 -21.96333984 60.17605957 -21.01074219 60.17016602 C-14.95955423 60.10605098 -8.99884204 59.80918956 -2.984375 59.12109375 C-2.00210938 59.06115234 -2.00210938 59.06115234 -1 59 C0 60 0 60 0.09765625 63.59765625 C0.0909822 65.08596867 0.07902183 66.57426432 0.0625 68.0625 C0.05798828 68.82111328 0.05347656 69.57972656 0.04882812 70.36132812 C0.0370068 72.24091871 0.01907078 74.12046899 0 76 C-13.96895808 82.25500764 -31.52291018 81.51344565 -46 77 C-58.05400094 72.36051043 -65.39866562 65.7367894 -70.8125 54.01171875 C-75.57275165 41.93884368 -75.03030076 29.22778042 -71 17 C-65.61900368 5.13163429 -57.01662261 -2.25577497 -45 -7 C-30.14501421 -11.69580098 -12.37565396 -9.73579604 0 0 Z M-49.5625 17 C-51.86673515 20.23767885 -52.16037449 21.80187244 -53 26 C-38.15 26 -23.3 26 -8 26 C-9.09811452 18.31319833 -10.47949572 15.94174174 -16 11 C-26.83460513 4.06585271 -41.68455187 7.14323078 -49.5625 17 Z " fill="#000000" transform="translate(724,140)"/>
    <path d="M0 0 C9.3720012 8.60655887 13.14148151 20.08530658 13.8046875 32.484375 C13.83300803 44.54891993 9.99282838 56.27174919 1.6328125 65.22265625 C-8.88768484 74.41115929 -21.23827842 78.72116408 -35.1875 77.8125 C-47.66227647 76.63817691 -57.49954339 71.60090874 -66.05859375 62.46484375 C-75.22301402 51.04715317 -76.3436135 37.89468873 -75.1875 23.8125 C-73.27010241 12.87847957 -67.22812151 3.46358822 -58.3125 -3.125 C-39.69224787 -15.07060791 -17.24431426 -13.85412771 0 0 Z M-51.73828125 17.421875 C-56.20943079 24.797464 -56.90247732 32.66368079 -55.10546875 40.984375 C-52.7308814 48.30012497 -48.73851553 53.10829825 -42.1171875 56.9375 C-35.90600944 59.75390463 -28.43994838 59.82159595 -22 57.6875 C-15.27809581 54.76788505 -10.85801267 50.36551576 -7.8984375 43.6875 C-4.86287239 35.681614 -5.78792068 27.54321596 -9.1875 19.8125 C-13.09656626 13.63638718 -18.05331848 9.58221945 -25.1875 7.8125 C-35.98080688 6.4291122 -44.82907307 8.7249696 -51.73828125 17.421875 Z " fill="#000000" transform="translate(965.1875,142.1875)"/>
    <path d="M0 0 C1.051875 0.721875 2.10375 1.44375 3.1875 2.1875 C11.42633037 10.42633037 16.30408949 20.63540473 16.46826172 32.29394531 C16.45811035 33.12506836 16.44795898 33.95619141 16.4375 34.8125 C16.42992676 35.68616211 16.42235352 36.55982422 16.41455078 37.45996094 C16.1397269 48.29644712 13.28588141 56.88897058 6 65 C5.21302734 65.92425781 5.21302734 65.92425781 4.41015625 66.8671875 C-3.91809179 75.99886653 -15.54958262 79.40698825 -27.5625 80.25 C-38.13554247 80.0446982 -47.45907299 77.16404565 -56 71 C-57.051875 70.278125 -58.10375 69.55625 -59.1875 68.8125 C-68.53002817 59.46997183 -72.39097004 48.65024458 -73.0625 35.6953125 C-72.84570489 22.87730153 -68.62052326 12.24212539 -60.015625 2.8515625 C-43.31605323 -12.4887418 -18.10045195 -12.84867849 0 0 Z M-49 20 C-53.27435059 28.03386343 -54.07771747 35.211732 -51.9375 44 C-49.83933087 50.31393487 -46.43219729 54.96141302 -40.671875 58.3828125 C-34.09430843 61.34064904 -27.51971211 62.41061079 -20.546875 60.234375 C-12.88237679 57.03660422 -8.54121705 53.28991355 -5.01171875 45.71875 C-2.11317976 37.92962591 -2.5321645 30.66775618 -5.81640625 23.125 C-8.86093243 17.21428808 -13.62766475 12.93646371 -19.8828125 10.50390625 C-31.24207016 7.80031909 -41.52519852 11.06590973 -49 20 Z " fill="#000000" transform="translate(423,140)"/>
    <path d="M0 0 C4.62 0 9.24 0 14 0 C14 7.26 14 14.52 14 22 C17.01447266 21.98259766 17.01447266 21.98259766 20.08984375 21.96484375 C22.02921424 21.9578926 23.96858503 21.95097604 25.90795898 21.94506836 C27.25920386 21.94002943 28.61044326 21.93319823 29.96166992 21.92456055 C31.90020434 21.91247581 33.838778 21.90730172 35.77734375 21.90234375 C37.52905884 21.89448853 37.52905884 21.89448853 39.31616211 21.88647461 C42 22 42 22 43 23 C43.09975032 25.51136104 43.13882183 27.98903415 43.125 30.5 C43.12886719 31.20253906 43.13273438 31.90507812 43.13671875 32.62890625 C43.12661378 37.87338622 43.12661378 37.87338622 42 39 C39.92737924 39.08767112 37.85179706 39.10695873 35.77734375 39.09765625 C34.51728516 39.09443359 33.25722656 39.09121094 31.95898438 39.08789062 C30.61848891 39.07953403 29.27799412 39.07106907 27.9375 39.0625 C26.59310058 39.0574866 25.2486994 39.05292342 23.90429688 39.04882812 C20.60282059 39.03699488 17.30143197 39.02050971 14 39 C14.06933272 43.5537426 14.15751321 48.10660645 14.26245117 52.65966797 C14.29550862 54.20546643 14.32359903 55.75138004 14.34643555 57.29736328 C14.3661782 69.01075614 14.3661782 69.01075614 18 80 C21.58844952 83.47631047 25.01044687 84.12720941 29.88671875 84.09765625 C30.82451172 84.09443359 31.76230469 84.09121094 32.72851562 84.08789062 C33.70498047 84.07951172 34.68144531 84.07113281 35.6875 84.0625 C36.67556641 84.05798828 37.66363281 84.05347656 38.68164062 84.04882812 C41.12115474 84.03704303 43.56054689 84.02059011 46 84 C47.47694068 86.95388136 47.20930797 89.65161882 47.25 92.9375 C47.27578125 94.18402344 47.3015625 95.43054688 47.328125 96.71484375 C47 100 47 100 45.6796875 101.8984375 C38.56093763 106.567013 25.26962456 103.96603391 17.44140625 102.75 C10.02789006 101.13434153 3.86451224 98.03142265 -0.8203125 91.95703125 C-5.48095258 84.22530714 -6.15789876 75.36879247 -6.09765625 66.5390625 C-6.0962413 65.74849457 -6.09482635 64.95792664 -6.09336853 64.1434021 C-6.08780504 61.63722834 -6.07525944 59.13114642 -6.0625 56.625 C-6.05748028 54.91797005 -6.0529182 53.21093868 -6.04882812 51.50390625 C-6.03870171 47.3358743 -6.01911945 43.16803904 -6 39 C-11.61 39 -17.22 39 -23 39 C-23 34.38 -23 29.76 -23 25 C-21.123125 24.278125 -19.24625 23.55625 -17.3125 22.8125 C-11.46069017 20.33012239 -7.46858463 18.48205049 -4.89453125 12.37890625 C-4.19308014 10.47207345 -3.52415518 8.55283356 -2.89453125 6.62109375 C-2 4 -2 4 0 0 Z " fill="#000000" transform="translate(767,116)"/>
    <path d="M0 0 C2.31243792 -0.02685412 4.6249627 -0.04632841 6.9375 -0.0625 C8.22527344 -0.07410156 9.51304687 -0.08570312 10.83984375 -0.09765625 C14 0 14 0 15 1 C15.08685603 2.56172745 15.10702219 4.12729344 15.09765625 5.69140625 C15.09515869 6.54162354 15.09266113 7.39184082 15.09008789 8.26782227 C15.08098389 9.35506592 15.07187988 10.44230957 15.0625 11.5625 C15.041875 15.006875 15.02125 18.45125 15 22 C24.24 22 33.48 22 43 22 C43.020625 24.619375 43.04125 27.23875 43.0625 29.9375 C43.071604 30.7637085 43.08070801 31.58991699 43.09008789 32.44116211 C43.09723945 34.29433759 43.0502852 36.14749308 43 38 C42 39 42 39 39.40795898 39.11352539 C38.28204346 39.10828857 37.15612793 39.10305176 35.99609375 39.09765625 C34.78115234 39.09443359 33.56621094 39.09121094 32.31445312 39.08789062 C31.03505859 39.07951172 29.75566406 39.07113281 28.4375 39.0625 C27.15423828 39.05798828 25.87097656 39.05347656 24.54882812 39.04882812 C21.36583978 39.03699545 18.18294238 39.02051068 15 39 C15.0690999 43.87516992 15.15717301 48.74950032 15.26245117 53.62402344 C15.29560018 55.28050384 15.32366309 56.93709446 15.34643555 58.59375 C15.38016732 60.98224634 15.43248959 63.36974171 15.48828125 65.7578125 C15.49467117 66.49242706 15.5010611 67.22704163 15.50764465 67.98391724 C15.64101854 72.70238744 16.53333346 75.97697083 19 80 C24.07077907 84.59539353 29.62609997 84.31463753 36.1640625 84.71875 C39 85 39 85 40 86 C40.07325168 88.86267567 40.09238205 91.700719 40.0625 94.5625 C40.05798828 95.36880859 40.05347656 96.17511719 40.04882812 97.00585938 C40.03700518 99.00393756 40.01906914 101.00197783 40 103 C30.5964879 106.13450403 18.37127768 103.81614468 9.5078125 99.8984375 C2.33672884 95.70403008 -1.74819922 89.89651759 -4 82 C-5.17818878 77.3838444 -5.12796113 72.92816996 -5.09765625 68.19921875 C-5.0962413 67.36284378 -5.09482635 66.52646881 -5.09336853 65.66474915 C-5.08779184 63.005629 -5.07524365 60.3465945 -5.0625 57.6875 C-5.05748199 55.87955851 -5.05291961 54.0716157 -5.04882812 52.26367188 C-5.03783004 47.84241516 -5.0205815 43.42122207 -5 39 C-6.21558594 39.01160156 -7.43117188 39.02320313 -8.68359375 39.03515625 C-10.26822764 39.04453278 -11.85286318 39.05363313 -13.4375 39.0625 C-14.23994141 39.07087891 -15.04238281 39.07925781 -15.86914062 39.08789062 C-17.91295221 39.0965143 -19.95683902 39.0522815 -22 39 C-23 38 -23 38 -23.09765625 35.05859375 C-23.08605469 33.86363281 -23.07445312 32.66867188 -23.0625 31.4375 C-23.05347656 30.23996094 -23.04445313 29.04242188 -23.03515625 27.80859375 C-23.02355469 26.88175781 -23.01195312 25.95492187 -23 25 C-21.845 24.5875 -20.69 24.175 -19.5 23.75 C-17.99791051 23.1720684 -16.49798309 22.58849336 -15 22 C-14.28328125 21.73316406 -13.5665625 21.46632812 -12.828125 21.19140625 C-8.0374158 19.16526044 -5.84485765 17.10122023 -3.80859375 12.3046875 C-2.38408652 8.2444978 -1.12343466 4.1533039 0 0 Z " fill="#000000" transform="translate(840,116)"/>
</svg>
