<svg width="197" height="155" viewBox="0 0 197 155" fill="none" xmlns="http://www.w3.org/2000/svg">
<path d="M98.6497 132.317C104.783 132.317 109.754 137.307 109.755 143.463C109.755 149.619 104.783 154.609 98.6497 154.609C92.5166 154.609 87.5448 149.619 87.5448 143.463C87.545 137.307 92.5168 132.317 98.6497 132.317ZM178.399 0.981825C179.697 2.28412 179.697 4.39045 178.399 5.69274L41.7683 142.83C40.4635 144.14 38.3428 144.14 37.0383 142.83C35.741 141.527 35.7413 139.421 37.0389 138.118L173.671 0.981797C174.975 -0.327309 177.095 -0.327293 178.399 0.981825ZM98.4285 104.005C109.443 104.005 120.458 107.955 129.235 115.679C130.537 116.824 130.531 118.82 129.307 120.048C128.077 121.282 126.086 121.272 124.768 120.132C117.332 113.707 108.04 110.249 98.2051 110.249C90.6539 110.249 83.5468 112.254 77.5503 116.044L88.434 105.12C91.7652 104.451 95.0973 104.005 98.4285 104.005ZM84.8791 80.1541C71.8866 82.4312 59.6601 88.5519 49.6221 97.8033C48.3408 98.9841 46.3463 98.9898 45.1165 97.7554C43.8931 96.5275 43.8895 94.5357 45.16 93.3565C58.564 80.9158 75.187 74.0616 92.208 72.7959L84.8791 80.1541ZM118.194 75.0251C130.14 78.3329 141.515 84.3253 151.252 93.3571C152.523 94.5359 152.519 96.5275 151.296 97.7554C150.066 98.9898 148.071 98.9843 146.791 97.802C137.212 88.9537 125.624 82.8361 113.086 80.1541L118.194 75.0251ZM98.2051 41.1427C105.979 41.1427 113.753 42.0335 121.304 43.5939L115.973 48.945C110.199 47.8304 104.202 47.3841 98.2051 47.3841C71.7124 47.3842 46.6585 57.2858 27.3928 75.5018C26.1299 76.6959 24.139 76.7001 22.9123 75.469C21.6876 74.2397 21.6903 72.2458 22.9548 71.0575C44.1753 51.114 71.1901 41.1428 98.2051 41.1427ZM142.625 50.5037C153.711 55.4489 164.228 62.2991 173.473 71.0535C174.732 72.2453 174.729 74.2352 173.506 75.4632C172.276 76.6975 170.28 76.6934 169.013 75.4979C159.77 66.7813 149.245 60.1282 137.962 55.1863L142.625 50.5037ZM98.2051 9.70929C114.64 9.70929 130.854 12.6069 146.401 18.1799L141.514 23.0846C127.744 18.4034 113.086 15.9507 98.2051 15.9507C63.2809 15.9508 30.4492 29.1845 5.39738 53.4061C4.14359 54.6183 2.14391 54.6258 0.913003 53.3903C-0.307719 52.165 -0.309156 50.1797 0.937767 48.9811C28.1742 22.8008 63.1896 9.7094 98.2051 9.70929ZM165.945 27.0968C176.419 33.0743 186.322 40.1968 195.48 48.9902C196.724 50.1838 196.721 52.1615 195.505 53.3823C194.272 54.6196 192.268 54.6048 191.019 53.3842C182.051 44.622 172.139 37.5367 161.282 31.7795L165.945 27.0968Z" fill="#6C7381"/>
</svg>
