<svg width="24" height="24" viewBox="0 0 24 24" fill="none" xmlns="http://www.w3.org/2000/svg">
    <g clip-path="url(#clip0_11937_15894)">
        <path d="M8.47436 11.998L5.63477 13.6538L3 18.2681L13.7479 11.998H8.47436Z" fill="#874691"/>
        <path d="M16.5875 7.27002L13.7478 8.92581L11.1131 13.5401L21.857 7.27002H16.5875Z" fill="#DA1844"/>
        <path d="M13.7478 5.6143L11.1131 1V10.4599V13.5401V23L13.7478 18.3857V5.6143Z" fill="#F9B229"/>
        <path d="M11.1131 1L13.7478 5.6143L16.5875 7.27004H21.857L11.1131 1Z" fill="#F07F1A"/>
        <path d="M11.1131 10.46V23.0001L13.7478 18.3858V15.0702L11.1131 10.46Z" fill="#72B22C"/>
        <path d="M16.5875 16.73L13.7478 18.3857L11.1131 23L21.857 16.73H16.5875Z" fill="#00743E"/>
        <path d="M3 5.72803V18.2681L5.63477 13.6539V10.3423L3 5.72803Z" fill="#5F5A94"/>
        <path d="M11.1132 10.46V10.464L3 5.72803L5.63477 10.3423L16.5876 16.73H21.8571L11.1132 10.46Z" fill="#0D90CD"/>
    </g>
    <defs>
        <clipPath id="clip0_11937_15894">
            <rect width="18.8571" height="22" fill="white" transform="translate(3 1)"/>
        </clipPath>
    </defs>
</svg>
