<svg width="24" height="24" viewBox="0 0 24 24" fill="none" xmlns="http://www.w3.org/2000/svg">
    <g clip-path="url(#clip0_11937_25404)">
        <path d="M13.0248 12.0573L21.4549 20.69L21.283 20.8467L21.2104 20.9155C18.8498 23.0211 15.7568 24.1154 12.5973 23.9627C9.43783 23.81 6.4647 22.4226 4.31819 20.0992C2.17168 17.7758 1.02352 14.7024 1.12097 11.5407C1.21842 8.37905 2.55368 5.38213 4.8392 3.19536C7.18905 1.04493 10.2915 -0.0931067 13.4745 0.0277759C16.6575 0.148658 19.6648 1.51873 21.8447 3.84119L13.0248 12.0573Z" fill="#01B94F"/>
        <path d="M4.84586 3.19187C7.19536 1.04332 10.2967 -0.0932206 13.4781 0.0283728C16.6596 0.149966 19.6651 1.51991 21.8437 3.84152C21.8437 3.84152 14.8313 10.4068 14.6899 10.5214C14.6899 10.5214 13.1193 12.0004 13.1308 12.0233C13.1423 12.0462 21.4387 20.656 21.4387 20.656L21.2705 20.8165L21.1979 20.8853C16.2453 25.2417 8.65586 25.043 4.17328 20.1974C2.0206 17.8468 0.883489 14.7411 1.00945 11.5562C1.13542 8.37132 2.51425 5.3651 4.84586 3.19187Z" fill="url(#paint0_radial_11937_25404)"/>
        <path d="M4.84897 3.18428C7.20035 1.03857 10.3018 -0.0953904 13.4827 0.0276109C16.6635 0.150612 19.6682 1.52069 21.8468 3.84157C21.8468 3.84157 15.0217 10.2616 14.7427 10.4871C14.7427 10.4871 13.2142 11.9469 13.2409 11.9928C13.2982 12.1303 21.4265 20.6178 21.4265 20.6178L21.2583 20.7783L21.1857 20.8471C16.2446 25.1959 8.65132 24.9819 4.18403 20.1516C2.03457 17.8075 0.898387 14.709 1.02293 11.531C1.14747 8.35305 2.52265 5.353 4.84897 3.18428Z" fill="url(#paint1_radial_11937_25404)"/>
        <path d="M4.85734 3.18023C7.20882 1.03733 10.3089 -0.0945107 13.4879 0.0291895C16.667 0.15289 19.6697 1.5222 21.8476 3.84134C21.8476 3.84134 15.2173 10.1124 14.7893 10.4525C14.7893 10.4525 13.3142 11.8894 13.341 11.9581C13.4289 12.1645 21.4119 20.5832 21.4119 20.5832L21.24 20.7437L21.1674 20.8087C16.2415 25.146 8.65205 24.9244 4.1924 20.1055C2.04642 17.768 0.911957 14.6766 1.03653 11.5058C1.16109 8.33504 2.53458 5.3422 4.85734 3.18023Z" fill="url(#paint2_radial_11937_25404)"/>
        <path d="M4.86217 3.17659C7.21395 1.03535 10.3135 -0.0951074 13.4916 0.0292998C16.6697 0.153707 19.6714 1.52299 21.8486 3.84152C21.8486 3.84152 15.4094 9.95588 14.84 10.4183C14.84 10.4183 13.4108 11.836 13.449 11.9278C13.5637 12.2029 21.3977 20.549 21.3977 20.549L21.2295 20.7057C21.2295 20.7057 21.1569 20.7706 21.1569 20.7745C16.2425 25.0965 8.65307 24.8596 4.20488 20.0598C2.06234 17.7294 0.928899 14.6459 1.05205 11.4827C1.1752 8.31942 2.54494 5.33339 4.86217 3.17659Z" fill="url(#paint3_radial_11937_25404)"/>
        <path d="M4.8693 3.16883C7.22167 1.03088 10.3201 -0.0967865 13.4964 0.0290343C16.6726 0.154855 19.6722 1.52408 21.8481 3.84141C21.8481 3.84141 15.6038 9.81818 14.8892 10.3838C14.8892 10.3838 13.5058 11.7786 13.5517 11.8932C13.6969 12.2372 21.3857 20.5106 21.3819 20.5145L21.2137 20.6711L21.1411 20.7399C16.2382 25.0429 8.65255 24.8022 4.21583 20.0139C2.077 17.6894 0.945142 14.6129 1.06759 11.4565C1.19003 8.30017 2.55682 5.32058 4.8693 3.16883Z" fill="url(#paint4_radial_11937_25404)"/>
        <path d="M4.8722 3.1652C7.22487 1.0289 10.3228 -0.0973809 13.4981 0.0291468C16.6735 0.155674 19.6719 1.52488 21.8472 3.8416C21.8472 3.8416 15.794 9.67316 14.9379 10.3381C14.9379 10.3381 13.6004 11.71 13.6578 11.8476C13.8297 12.2603 21.3695 20.4612 21.3695 20.4612L21.2013 20.6561L21.1287 20.721C16.2334 24.9934 8.65163 24.745 4.22255 19.9682C2.08765 17.6504 0.957477 14.5815 1.07922 11.4326C1.20096 8.28376 2.56471 5.31125 4.8722 3.1652Z" fill="url(#paint5_radial_11937_25404)"/>
        <path d="M4.88058 3.16108C7.23354 1.02643 10.3309 -0.0984626 13.5053 0.0287717C16.6797 0.156006 19.6771 1.52518 21.8517 3.8413C21.8517 3.8413 15.9896 9.52764 14.9922 10.3378C14.9922 10.3378 13.6967 11.6868 13.7617 11.8473C13.9795 12.3097 21.3587 20.4417 21.3549 20.4417L21.1868 20.5984L21.1142 20.6672C16.2342 24.9434 8.65236 24.6836 4.23475 19.922C2.10282 17.6113 0.973704 14.5498 1.09476 11.4081C1.21581 8.26648 2.57716 5.3009 4.88058 3.16108Z" fill="url(#paint6_radial_11937_25404)"/>
        <path d="M4.88322 3.15374C7.23696 1.02122 10.3341 -0.101613 13.5076 0.0270425C16.6811 0.155698 19.6771 1.52555 21.8505 3.8416C21.8505 3.8416 16.1795 9.3789 15.0407 10.2846C15.0407 10.2846 13.7911 11.6145 13.8675 11.8132C14.0968 12.3635 21.3423 20.4229 21.3384 20.4229C21.3346 20.4229 21.1818 20.572 21.1703 20.5796L21.0977 20.6446C16.2292 24.8941 8.64737 24.6266 4.24122 19.8918C2.10732 17.5867 0.976212 14.5286 1.0966 11.3898C1.217 8.25102 2.57903 5.28852 4.88322 3.15374Z" fill="url(#paint7_radial_11937_25404)"/>
        <path d="M4.89177 3.1497C7.24561 1.02 10.3413 -0.100727 13.513 0.0286272C16.6847 0.157981 19.6788 1.52707 21.8514 3.84139C21.8514 3.84139 16.3753 9.23348 15.0913 10.25C15.0913 10.25 13.8875 11.5569 13.9754 11.7786C14.2314 12.3977 21.3279 20.3845 21.3279 20.3883L21.1597 20.545L21.0871 20.61C16.2301 24.8595 8.64827 24.5805 4.2727 19.8457C2.14127 17.5493 1.00913 14.5005 1.12522 11.3695C1.24131 8.23857 2.59614 5.28192 4.89177 3.1497Z" fill="url(#paint8_radial_11937_25404)"/>
        <path d="M4.89546 3.14608C7.24959 1.01802 10.3448 -0.101317 13.5155 0.0287432C16.6863 0.158803 19.6794 1.52787 21.8513 3.84159C21.8513 3.84159 16.5662 9.08464 15.1255 10.2158C15.1255 10.2158 13.9791 11.5036 14.0632 11.7444C14.3612 12.4208 21.3163 20.335 21.3125 20.3389L21.1443 20.4917C21.1443 20.4917 21.0794 20.5529 21.0717 20.5605C16.2261 24.7947 8.64814 24.5043 4.25728 19.7962C3.20586 18.6611 2.38833 17.33 1.85138 15.8789C1.31442 14.4277 1.06855 12.8851 1.12782 11.339C1.18708 9.79284 1.55031 8.27353 2.19676 6.86779C2.84322 5.46205 3.76024 4.19741 4.89546 3.14608Z" fill="url(#paint9_radial_11937_25404)"/>
        <path d="M4.90258 3.13835C7.25729 1.01358 10.3514 -0.102983 13.5203 0.0284891C16.6892 0.159962 19.6802 1.52898 21.8508 3.8415C21.8508 3.8415 16.7606 8.93934 15.19 10.1813C15.19 10.1813 14.0779 11.45 14.1849 11.7099C14.4983 12.4742 21.3005 20.312 21.3005 20.3158L21.1324 20.4687L21.0597 20.5337C16.2218 24.7449 8.64762 24.4469 4.27204 19.7426C2.15418 17.457 1.03085 14.4237 1.1491 11.3099C1.26734 8.19615 2.61748 5.25682 4.90258 3.13835Z" fill="url(#paint10_radial_11937_25404)"/>
        <path d="M4.90704 3.13459C7.26267 1.01122 10.3568 -0.104058 13.5255 0.0281175C16.6941 0.160293 19.6846 1.52939 21.8552 3.84156C21.8552 3.84156 16.9523 8.80947 15.2403 10.1508C15.2403 10.1508 14.1779 11.3928 14.2887 11.6794C14.6327 12.4934 21.2897 20.2739 21.2858 20.2739L21.1177 20.4306L21.0451 20.4955C16.2224 24.6991 8.64825 24.3934 4.28414 19.7045C3.23603 18.5761 2.42066 17.2522 1.88466 15.8084C1.34866 14.3646 1.10255 12.8294 1.1604 11.2904C1.21825 9.75143 1.57894 8.23897 2.22182 6.83952C2.8647 5.44007 3.77717 4.18109 4.90704 3.13459Z" fill="url(#paint11_radial_11937_25404)"/>
        <path d="M4.91426 3.13057C7.26998 1.01001 10.3628 -0.103166 13.5296 0.029706C16.6963 0.162578 19.685 1.53092 21.8548 3.84136C21.8548 3.84136 17.1468 8.64495 15.2895 10.1162C15.2895 10.1162 14.273 11.3391 14.3953 11.6448C14.7775 12.539 21.274 20.2393 21.274 20.2431L21.1058 20.3998C21.1058 20.3998 21.0409 20.4571 21.037 20.4648C16.222 24.6684 8.65165 24.3359 4.29518 19.6622C-0.0612956 14.9886 0.156528 7.44501 4.91426 3.13057Z" fill="url(#paint12_radial_11937_25404)"/>
        <path d="M4.91764 3.12276C7.27413 1.00433 10.3667 -0.106793 13.5325 0.0274997C16.6984 0.161792 19.6857 1.53082 21.8544 3.8412C21.8544 3.8412 17.3374 8.49192 15.3579 10.074C15.3579 10.074 14.3834 11.274 14.5172 11.6026C14.9184 12.5656 21.2735 20.1933 21.2735 20.1971L21.1054 20.3499L21.0328 20.4149C16.2139 24.5918 8.62828 24.2669 4.30239 19.6047C-0.023512 14.9426 0.171382 7.42573 4.91764 3.12276Z" fill="url(#paint13_radial_11937_25404)"/>
        <path d="M4.9256 3.11925C7.28217 1.00361 10.3733 -0.105411 13.5374 0.0295788C16.7014 0.164568 19.6869 1.53284 21.8547 3.8415C21.8547 3.8415 17.5326 8.35083 15.3926 10.0476C15.3926 10.0476 14.464 11.2284 14.6054 11.5762C15.0372 12.6041 21.2394 20.1592 21.2394 20.163L21.0713 20.3158L20.9987 20.3808C16.2142 24.5424 8.6286 24.2061 4.31034 19.5592C-0.00791919 14.9123 0.186976 7.40693 4.9256 3.11925Z" fill="url(#paint14_radial_11937_25404)"/>
        <path d="M4.92984 3.11515C7.2867 1.00116 10.3773 -0.106483 13.5404 0.0292123C16.7036 0.164907 19.688 1.53316 21.8551 3.84123C21.8551 3.84123 17.7241 8.20534 15.4427 10.0129C15.4427 10.0129 14.5599 11.1593 14.7128 11.5415C15.1714 12.6306 21.2399 20.1245 21.2399 20.1283L21.0755 20.2812L21.0029 20.3461C16.2108 24.4771 8.62902 24.1485 4.32223 19.5092C0.0154322 14.87 0.198863 7.39137 4.92984 3.11515Z" fill="url(#paint15_radial_11937_25404)"/>
        <path d="M4.93759 3.10775C7.29608 0.99772 10.386 -0.106653 13.5477 0.0304367C16.7093 0.167526 19.692 1.53521 21.859 3.84147C21.859 3.84147 17.9191 8.04508 15.5078 9.97875C15.5078 9.97875 14.6709 11.1252 14.8314 11.5073C15.3052 12.6767 21.24 20.0865 21.217 20.0904L21.0489 20.2432C21.0265 20.2668 21.0022 20.2886 20.9763 20.3082C16.2109 24.443 8.62913 24.0953 4.3338 19.4675C0.0384786 14.8397 0.221909 7.3725 4.93759 3.10775Z" fill="url(#paint16_radial_11937_25404)"/>
        <path d="M4.94152 3.10377C7.30282 0.996912 10.3946 -0.102631 13.556 0.0401911C16.7174 0.183013 19.6974 1.55687 21.8591 3.86806C21.8591 3.86806 18.1103 7.91117 15.5423 9.95566C15.5423 9.95566 14.7512 11.0715 14.9232 11.4842C15.4391 12.7262 21.2057 20.0673 21.2019 20.0711C21.198 20.0749 21.0605 20.2048 21.0337 20.2239L20.9649 20.2889C16.2072 24.3932 8.62923 24.0263 4.34155 19.4214C0.0538608 14.8166 0.222005 7.35324 4.94152 3.10377Z" fill="url(#paint17_radial_11937_25404)"/>
        <path d="M4.9486 3.1001C7.30908 0.99464 10.3994 -0.104083 13.5592 0.0387335C16.719 0.18155 19.6977 1.55458 21.8586 3.86439C21.8586 3.86439 18.3046 7.77375 15.5914 9.92524C15.5914 9.92524 14.8462 11.0182 15.0258 11.4538C15.5723 12.7646 21.1937 20.033 21.186 20.0368L21.0217 20.1897L20.9491 20.2547C16.2028 24.3436 8.62867 23.9691 4.35245 19.3757C0.0762311 14.7823 0.240554 7.33429 4.9486 3.1001Z" fill="url(#paint18_radial_11937_25404)"/>
        <path d="M4.95315 3.0772C7.31384 0.973819 10.4032 -0.123582 13.5617 0.0192117C16.7203 0.162005 19.698 1.53368 21.8593 3.8415C21.8593 3.8415 18.4964 7.60564 15.6456 9.86795C15.6456 9.86795 14.9425 10.938 15.1335 11.3965C15.7067 12.7761 21.1791 19.9757 21.1753 19.9796L21.0071 20.1324L20.9345 20.1936C16.2035 24.294 8.6294 23.908 4.36082 19.3337C0.0922441 14.7594 0.256567 7.31521 4.95315 3.0772Z" fill="url(#paint19_radial_11937_25404)"/>
        <path d="M4.9609 3.07695C7.32076 0.974966 10.4086 -0.121616 13.5657 0.0211721C16.7227 0.16396 19.699 1.53481 21.8594 3.84125C19.9596 5.99545 17.899 8.00239 15.6954 9.84478C15.6954 9.84478 15.0381 10.8957 15.2406 11.3734C15.8406 12.8217 21.1639 19.9449 21.1601 19.9526L20.9958 20.1016L20.9232 20.1666C16.1998 24.2441 8.62951 23.8505 4.3724 19.2876C0.115282 14.7248 0.268141 7.28057 4.9609 3.07695Z" fill="url(#paint20_radial_11937_25404)"/>
        <path d="M4.9635 3.07691C7.32379 0.97584 10.4114 -0.120134 13.5682 0.0226408C16.7249 0.165416 19.701 1.53564 21.862 3.8412C19.9888 5.98953 17.9439 7.98198 15.7477 9.79887C15.7477 9.79887 15.1401 10.8268 15.3655 11.3275C15.9961 12.856 21.1742 19.899 21.1665 19.9028L21.0022 20.0557L20.9296 20.1206C16.1986 24.1905 8.62829 23.7893 4.37881 19.2417C0.129342 14.6942 0.282201 7.28052 4.9635 3.07691Z" fill="url(#paint21_radial_11937_25404)"/>
        <path d="M4.97126 3.07707C7.33156 0.979229 10.4173 -0.114716 13.572 0.028027C16.7266 0.17077 19.701 1.53893 21.8621 3.84136C20.0183 5.99123 17.9875 7.97341 15.7937 9.76464C15.7937 9.76464 15.2319 10.7735 15.4497 11.2932C16.107 12.8944 21.1361 19.8915 21.1322 19.8915C21.1284 19.8915 20.9985 20.0176 20.9641 20.0444L20.8953 20.1055C16.1949 24.141 8.6284 23.713 4.39039 19.196C0.152385 14.6791 0.293779 7.28068 4.97126 3.07707Z" fill="url(#paint22_radial_11937_25404)"/>
        <path d="M4.9762 3.07717C7.33629 0.980485 10.4212 -0.112747 13.5749 0.0299857C16.7286 0.172719 19.7022 1.54016 21.8633 3.84146C20.0493 5.99523 18.0338 7.97097 15.8444 9.74181C15.8444 9.74181 15.3286 10.7277 15.554 11.2704C16.2457 12.9251 21.1257 19.8381 21.1181 19.8419L20.9538 19.991L20.8811 20.056C16.1922 24.0952 8.62952 23.6711 4.40298 19.1503C0.176435 14.6295 0.310187 7.24257 4.9762 3.07717Z" fill="url(#paint23_radial_11937_25404)"/>
        <path d="M4.9804 3.07727C7.34028 0.981742 10.4244 -0.110779 13.5772 0.0319444C16.7299 0.174668 19.7027 1.54138 21.8636 3.84156C20.0806 5.99911 18.079 7.9662 15.8907 9.71134C15.8907 9.71134 15.4206 10.6743 15.6576 11.2399C16.376 12.9634 21.107 19.8 21.1032 19.8077L20.935 19.9567L20.8624 20.0217C16.1926 24.0418 8.6299 23.61 4.42628 19.1045C0.222667 14.599 0.325846 7.22356 4.9804 3.07727Z" fill="url(#paint24_radial_11937_25404)"/>
        <path d="M4.98721 3.07699C7.34668 0.983768 10.4291 -0.107331 13.5801 0.0353736C16.731 0.178078 19.7022 1.54335 21.8628 3.84128C20.1132 5.99957 18.1292 7.95671 15.9472 9.67666C15.9472 9.67666 15.5192 10.6206 15.7676 11.2052C16.5319 12.9975 21.1176 19.7653 21.0909 19.773L20.9266 19.922L20.854 19.9832C16.1879 23.9919 8.62907 23.5486 4.42545 19.0584C0.221834 14.5681 0.336478 7.20417 4.98721 3.07699Z" fill="url(#paint25_radial_11937_25404)"/>
        <path d="M4.99072 3.07706C7.35041 0.985907 10.4318 -0.103881 13.5816 0.0388011C16.7313 0.181484 19.7016 1.54542 21.8625 3.84136C20.1481 6.00432 18.1785 7.95211 15.9965 9.64235C15.9965 9.64235 15.6144 10.5633 15.8704 11.1709C16.6347 13.032 21.0829 19.7272 21.0753 19.731C21.0676 19.7348 20.9492 19.8495 20.911 19.8801L20.8384 19.945C16.1876 23.9423 8.62876 23.4914 4.42514 19.0126C0.221524 14.5338 0.351453 7.18514 4.99072 3.07706Z" fill="url(#paint26_radial_11937_25404)"/>
        <path d="M4.99925 3.05406C7.36162 0.966951 10.4439 -0.118135 13.5928 0.0288207C16.7416 0.175776 19.7095 1.54322 21.8672 3.84128C21.8672 3.84128 20.0405 6.43988 16.0471 9.60788C16.0471 9.60788 15.7108 10.5097 15.9783 11.1365C16.7808 13.0472 21.0685 19.6927 21.0647 19.6965L20.8965 19.8456L20.8278 19.9105C16.1847 23.8925 8.62964 23.4301 4.42603 18.9666C0.222418 14.5032 0.363812 7.16596 4.99925 3.05406Z" fill="url(#paint27_radial_11937_25404)"/>
        <path d="M5.00189 3.04677C7.36544 0.962687 10.4473 -0.119761 13.5949 0.0285997C16.7426 0.17696 19.709 1.54448 21.866 3.84164C21.866 3.84164 20.2343 6.27973 16.0956 9.57384C15.9414 10.0717 15.9414 10.6046 16.0956 11.1024C16.9287 13.1011 21.0635 19.6511 21.0635 19.6587L20.8992 19.8077L20.8266 19.8689C16.1797 23.8432 8.62846 23.3732 4.45159 18.925C0.274731 14.4768 0.37791 7.15103 5.00189 3.04677Z" fill="url(#paint28_radial_11937_25404)"/>
        <path d="M5.00983 3.04288C7.37261 0.959753 10.4535 -0.121814 13.5999 0.0272681C16.7463 0.17635 19.7111 1.54437 21.8663 3.84156C21.8663 3.84156 20.4256 6.13445 16.1341 9.52409C15.9991 10.0269 16.0137 10.5581 16.1762 11.0527C17.036 13.1468 21.0409 19.628 21.0333 19.6357L20.8689 19.7847L20.8001 19.8459C16.18 23.7934 8.62877 23.331 4.45954 18.879C0.290321 14.427 0.393501 7.13185 5.00983 3.04288Z" fill="url(#paint29_radial_11937_25404)"/>
        <path d="M5.01411 3.03881C7.37715 0.957323 10.4575 -0.122869 13.603 0.0269162C16.7485 0.176702 19.7122 1.54471 21.8668 3.84132C21.8668 3.84132 20.621 6.00045 16.1957 9.50856C16.0893 10.0174 16.1223 10.5455 16.2913 11.0371C17.1817 13.1733 21.0299 19.5819 21.0222 19.5896L20.8579 19.7348L20.7853 19.7998C16.1766 23.7435 8.62921 23.2505 4.47146 18.8329C0.248738 14.3542 0.405418 7.1125 5.01411 3.03881Z" fill="url(#paint30_radial_11937_25404)"/>
        <path d="M5.02123 3.03116C7.38523 0.953844 10.4643 -0.123007 13.6077 0.0281721C16.751 0.179351 19.7125 1.54672 21.8663 3.84131C21.8663 3.84131 20.8115 5.83994 16.2449 9.45887C16.1661 9.97313 16.2187 10.499 16.3977 10.9875C17.3149 13.1924 21.0141 19.5323 21.0064 19.5361L20.8421 19.6851L20.7695 19.7463C16.1837 23.6633 8.63634 23.1856 4.47858 18.7603C0.320821 14.3351 0.420179 7.09338 5.02123 3.03116Z" fill="url(#paint31_radial_11937_25404)"/>
        <path d="M5.02502 3.02746C7.38992 0.951531 10.469 -0.124058 13.6121 0.0278205C16.7552 0.1797 19.7163 1.54716 21.87 3.84143C21.87 3.84143 21.0064 5.69102 16.2983 9.42459C16.2468 9.94325 16.3175 10.4668 16.5047 10.9532C17.4486 13.2575 20.9987 19.5094 20.9911 19.5286L20.8268 19.6776L20.758 19.7387C16.1722 23.6405 8.62866 23.1322 4.49001 18.7452C0.2864 14.2893 0.435437 7.07439 5.02502 3.02746Z" fill="url(#paint32_radial_11937_25404)"/>
        <path d="M5.03286 3.02354C7.3974 0.949486 10.4753 -0.124625 13.6169 0.0279619C16.7585 0.180548 19.7178 1.54789 21.8702 3.84134C21.8702 3.84134 21.1977 5.561 16.3482 9.40539C16.3266 9.92752 16.4151 10.4483 16.6081 10.934C17.5826 13.2918 20.9875 19.4864 20.9798 19.5094L20.8155 19.6546L20.7429 19.7157C16.1686 23.5907 8.62886 23.0748 4.49785 18.6954C0.305701 14.2548 0.447095 7.05519 5.03286 3.02354Z" fill="url(#paint33_radial_11937_25404)"/>
        <path d="M5.03734 3.01579C7.40304 0.944755 10.4805 -0.126725 13.6209 0.0272643C16.7613 0.181254 19.7192 1.54868 21.8709 3.84123C21.8709 3.84123 21.3932 5.41185 16.3986 9.37089C16.4068 9.90205 16.5144 10.427 16.7157 10.9186C17.7208 13.3299 20.9729 19.4519 20.9652 19.4596L20.8009 19.6048L20.7321 19.6659C16.1693 23.5409 8.62952 23.0135 4.50998 18.6494C0.325472 14.2241 0.463044 7.03597 5.03734 3.01579Z" fill="url(#paint34_radial_11937_25404)"/>
        <path d="M5.04459 3.01217C7.41161 0.949277 10.4864 -0.115365 13.6222 0.0421398C16.758 0.199645 19.7106 1.56702 21.859 3.85671C21.859 3.85671 21.5724 5.26684 16.4364 9.3367C16.4807 9.86962 16.6097 10.3921 16.8185 10.8844C17.8541 13.3683 20.961 19.4177 20.9534 19.4254L20.789 19.5706C20.7631 19.5889 20.7388 19.6093 20.7164 19.6317C16.1651 23.4914 8.62912 22.9488 4.52104 18.6038C0.344181 14.19 0.474111 7.02089 5.04459 3.01217Z" fill="url(#paint35_radial_11937_25404)"/>
        <path d="M5.04772 3.00852C7.41481 0.945195 10.49 -0.119377 13.6262 0.0388554C16.7623 0.197088 19.7148 1.56578 21.8622 3.85688C21.8622 3.85688 21.7705 5.12179 16.4892 9.30248C16.5642 9.83597 16.7081 10.3575 16.9172 10.854C17.9872 13.3953 20.945 19.3797 20.9374 19.3873L20.7731 19.5325C20.7501 19.5325 20.7234 19.5784 20.7005 19.5937C16.1605 23.4419 8.62843 22.8954 4.528 18.5581C0.362596 14.1596 0.488704 7.00195 5.04772 3.00852Z" fill="url(#paint36_radial_11937_25404)"/>
        <path d="M5.05513 3.00066C7.424 0.940109 10.4994 -0.121951 13.635 0.0376788C16.7706 0.197309 19.7222 1.5662 21.8696 3.85667C21.8696 3.85667 21.9689 4.98782 16.5463 9.27169C16.6573 9.8026 16.8212 10.3211 17.0354 10.8194C18.1245 13.4409 20.9371 19.3451 20.9257 19.3527C20.9142 19.3604 20.8149 19.4559 20.7614 19.4979L20.6926 19.5591C16.1641 23.3997 8.6282 22.8341 4.53923 18.512C0.377655 14.1249 0.503763 6.98263 5.05513 3.00066Z" fill="url(#paint37_radial_11937_25404)"/>
        <path d="M5.05958 2.99675C7.429 0.936258 10.5052 -0.125069 13.6411 0.0360018C16.7769 0.197073 19.7282 1.56799 21.874 3.86041C21.874 3.86041 22.1644 4.82724 16.6004 9.23722C16.7433 9.76595 16.922 10.2843 17.1354 10.7887C18.2551 13.4638 20.9186 19.3106 20.911 19.3183L20.7467 19.4635L20.6741 19.5246C16.1609 23.3308 8.62882 22.7729 4.5475 18.4699C0.397389 14.0905 0.515855 6.96344 5.05958 2.99675Z" fill="url(#paint38_radial_11937_25404)"/>
        <path d="M5.06765 2.99308C7.43755 0.933069 10.514 -0.127594 13.6499 0.0341901C16.7858 0.195974 19.7368 1.5676 21.8821 3.86056C21.8821 3.86056 22.356 4.67835 16.6543 9.1915C16.6543 9.1915 16.8645 9.83351 17.2467 10.743C18.3931 13.5021 20.9076 19.2649 20.9 19.2725L20.7357 19.4177L20.6669 19.4751C16.1576 23.2927 8.62926 22.7157 4.55939 18.4242C0.416921 14.0562 0.531566 6.94448 5.06765 2.99308Z" fill="url(#paint39_radial_11937_25404)"/>
        <path d="M20.8808 19.2496C16.4173 23.2621 8.70181 22.7309 4.56698 18.363C0.432154 13.995 0.542976 6.89858 5.07141 2.97011C7.44268 0.911963 10.5195 -0.146783 13.6551 0.0164136C16.7908 0.17961 19.7411 1.55204 21.8859 3.84523C21.8859 3.84523 22.5623 4.51781 16.7116 9.15325C16.7001 9.16853 20.8961 19.2381 20.8808 19.2496Z" fill="url(#paint40_radial_11937_25404)"/>
        <path d="M16.5311 9.29785C14.7006 10.7997 12.4497 12.569 9.83203 14.5524C11.7767 16.6553 14.0383 18.4412 16.5349 19.8451C18.6787 20.9915 20.3563 21.2055 21.178 20.4795C21.9996 19.7534 21.9002 18.0796 20.9449 15.8937C19.8137 13.4856 18.3257 11.262 16.5311 9.29785Z" fill="url(#paint41_linear_11937_25404)"/>
        <path d="M16.6969 9.14844L15.7798 9.91273C17.4591 11.7588 18.8551 13.8438 19.9222 16.0997C20.8585 18.255 20.8356 19.3365 20.5337 19.6078C20.2318 19.8791 18.9287 19.9479 16.846 18.8435C14.5389 17.5351 12.4522 15.8715 10.6628 13.9138L9.63867 14.6781L9.87942 14.9112C14.2168 19.3938 18.9096 21.9465 20.9731 21.0179C21.0343 20.9873 21.0954 20.9568 21.1528 20.9224H21.1757C21.2555 20.8729 21.3309 20.8166 21.4011 20.7542C21.4755 20.6869 21.5434 20.6127 21.6037 20.5326C22.9527 18.7633 20.9044 13.9979 16.823 9.32805L16.6969 9.14844Z" fill="#84EEB1"/>
    </g>
    <defs>
        <radialGradient id="paint0_radial_11937_25404" cx="0" cy="0" r="1" gradientUnits="userSpaceOnUse" gradientTransform="translate(16.069 1.3597) rotate(-2.29061) scale(55.0157 40.7126)">
            <stop stop-color="#03BA50"/>
            <stop offset="0.8" stop-color="#01B64E"/>
        </radialGradient>
        <radialGradient id="paint1_radial_11937_25404" cx="0" cy="0" r="1" gradientUnits="userSpaceOnUse" gradientTransform="translate(16.0627 1.35532) rotate(-2.29061) scale(54.901 40.6277)">
            <stop stop-color="#04BC50"/>
            <stop offset="0.8" stop-color="#01B34D"/>
        </radialGradient>
        <radialGradient id="paint2_radial_11937_25404" cx="0" cy="0" r="1" gradientUnits="userSpaceOnUse" gradientTransform="translate(16.0503 1.36541) rotate(-2.29061) scale(54.7863 40.5427)">
            <stop stop-color="#06BD51"/>
            <stop offset="0.72" stop-color="#02B24C"/>
            <stop offset="0.8" stop-color="#01B04B"/>
        </radialGradient>
        <radialGradient id="paint3_radial_11937_25404" cx="0" cy="0" r="1" gradientUnits="userSpaceOnUse" gradientTransform="translate(16.0307 1.38287) rotate(-2.29061) scale(54.6716 40.4579)">
            <stop stop-color="#08BF52"/>
            <stop offset="0.56" stop-color="#04B44D"/>
            <stop offset="0.8" stop-color="#01AD4A"/>
        </radialGradient>
        <radialGradient id="paint4_radial_11937_25404" cx="0" cy="0" r="1" gradientUnits="userSpaceOnUse" gradientTransform="translate(16.0096 1.39933) rotate(-2.29061) scale(54.5568 40.3729)">
            <stop stop-color="#0AC053"/>
            <stop offset="0.48" stop-color="#05B54E"/>
            <stop offset="0.8" stop-color="#01AA49"/>
        </radialGradient>
        <radialGradient id="paint5_radial_11937_25404" cx="0" cy="0" r="1" gradientUnits="userSpaceOnUse" gradientTransform="translate(15.9846 1.44083) rotate(-1.71836) scale(54.4192 40.283)">
            <stop stop-color="#0BC253"/>
            <stop offset="0.42" stop-color="#07B74E"/>
            <stop offset="0.8" stop-color="#01A848"/>
        </radialGradient>
        <radialGradient id="paint6_radial_11937_25404" cx="0" cy="0" r="1" gradientUnits="userSpaceOnUse" gradientTransform="translate(15.9537 1.45097) rotate(-1.71836) scale(54.3045 40.198)">
            <stop stop-color="#0DC354"/>
            <stop offset="0.37" stop-color="#08B84F"/>
            <stop offset="0.8" stop-color="#01A546"/>
        </radialGradient>
        <radialGradient id="paint7_radial_11937_25404" cx="0" cy="0" r="1" gradientUnits="userSpaceOnUse" gradientTransform="translate(16.3561 1.46194) rotate(-1.71836) scale(54.1898 40.0969)">
            <stop stop-color="#0FC555"/>
            <stop offset="0.33" stop-color="#0ABA50"/>
            <stop offset="0.8" stop-color="#01A245"/>
        </radialGradient>
        <radialGradient id="paint8_radial_11937_25404" cx="0" cy="0" r="1" gradientUnits="userSpaceOnUse" gradientTransform="translate(16.3167 1.4811) rotate(-1.70136) scale(54.6154 40.0121)">
            <stop stop-color="#11C656"/>
            <stop offset="0.3" stop-color="#0CBB51"/>
            <stop offset="0.8" stop-color="#019F44"/>
        </radialGradient>
        <radialGradient id="paint9_radial_11937_25404" cx="0" cy="0" r="1" gradientUnits="userSpaceOnUse" gradientTransform="translate(16.3032 1.5009) rotate(-1.70135) scale(54.4996 39.9272)">
            <stop stop-color="#12C856"/>
            <stop offset="0.28" stop-color="#0EBD51"/>
            <stop offset="0.77" stop-color="#029E44"/>
            <stop offset="0.8" stop-color="#019C43"/>
        </radialGradient>
        <radialGradient id="paint10_radial_11937_25404" cx="0" cy="0" r="1" gradientUnits="userSpaceOnUse" gradientTransform="translate(16.2893 1.5273) rotate(-1.70136) scale(54.3799 39.8395)">
            <stop stop-color="#14C957"/>
            <stop offset="0.26" stop-color="#0FBE52"/>
            <stop offset="0.72" stop-color="#049F44"/>
            <stop offset="0.8" stop-color="#019941"/>
        </radialGradient>
        <radialGradient id="paint11_radial_11937_25404" cx="0" cy="0" r="1" gradientUnits="userSpaceOnUse" gradientTransform="translate(16.265 1.55984) rotate(-1.70136) scale(54.264 39.7547)">
            <stop stop-color="#16CB58"/>
            <stop offset="0.24" stop-color="#11C053"/>
            <stop offset="0.66" stop-color="#06A145"/>
            <stop offset="0.8" stop-color="#019640"/>
        </radialGradient>
        <radialGradient id="paint12_radial_11937_25404" cx="0" cy="0" r="1" gradientUnits="userSpaceOnUse" gradientTransform="translate(16.236 1.59507) rotate(-1.70135) scale(54.1482 39.6698)">
            <stop stop-color="#18CC59"/>
            <stop offset="0.23" stop-color="#13C154"/>
            <stop offset="0.62" stop-color="#07A246"/>
            <stop offset="0.8" stop-color="#01933F"/>
        </radialGradient>
        <radialGradient id="paint13_radial_11937_25404" cx="0" cy="0" r="1" gradientUnits="userSpaceOnUse" gradientTransform="translate(16.2069 1.63721) rotate(-1.70136) scale(54.0284 39.5821)">
            <stop stop-color="#19CD59"/>
            <stop offset="0.21" stop-color="#15C254"/>
            <stop offset="0.59" stop-color="#09A347"/>
            <stop offset="0.8" stop-color="#01903E"/>
        </radialGradient>
        <radialGradient id="paint14_radial_11937_25404" cx="0" cy="0" r="1" gradientUnits="userSpaceOnUse" gradientTransform="translate(16.171 1.68287) rotate(-1.70135) scale(53.9126 39.4972)">
            <stop stop-color="#1BCF5A"/>
            <stop offset="0.2" stop-color="#17C455"/>
            <stop offset="0.56" stop-color="#0BA547"/>
            <stop offset="0.8" stop-color="#018D3C"/>
        </radialGradient>
        <radialGradient id="paint15_radial_11937_25404" cx="0" cy="0" r="1" gradientUnits="userSpaceOnUse" gradientTransform="translate(16.1314 1.51655) rotate(-1.13442) scale(53.7836 39.4114)">
            <stop stop-color="#1DD05B"/>
            <stop offset="0.19" stop-color="#18C556"/>
            <stop offset="0.54" stop-color="#0CA648"/>
            <stop offset="0.8" stop-color="#018B3B"/>
        </radialGradient>
        <radialGradient id="paint16_radial_11937_25404" cx="0" cy="0" r="1" gradientUnits="userSpaceOnUse" gradientTransform="translate(16.0877 1.55126) rotate(-1.13442) scale(53.6639 39.3238)">
            <stop stop-color="#1ED25B"/>
            <stop offset="0.18" stop-color="#1AC756"/>
            <stop offset="0.51" stop-color="#0EA848"/>
            <stop offset="0.8" stop-color="#01883A"/>
        </radialGradient>
        <radialGradient id="paint17_radial_11937_25404" cx="0" cy="0" r="1" gradientUnits="userSpaceOnUse" gradientTransform="translate(16.044 1.58466) rotate(-1.13442) scale(53.5481 39.2389)">
            <stop stop-color="#20D35C"/>
            <stop offset="0.18" stop-color="#1BC857"/>
            <stop offset="0.49" stop-color="#0FA949"/>
            <stop offset="0.8" stop-color="#018539"/>
        </radialGradient>
        <radialGradient id="paint18_radial_11937_25404" cx="0" cy="0" r="1" gradientUnits="userSpaceOnUse" gradientTransform="translate(15.992 1.63189) rotate(-1.13442) scale(53.4323 39.154)">
            <stop stop-color="#22D55D"/>
            <stop offset="0.17" stop-color="#1DCA58"/>
            <stop offset="0.47" stop-color="#11AB4A"/>
            <stop offset="0.8" stop-color="#018237"/>
        </radialGradient>
        <radialGradient id="paint19_radial_11937_25404" cx="0" cy="0" r="1" gradientUnits="userSpaceOnUse" gradientTransform="translate(15.9336 1.67533) rotate(-1.13442) scale(53.3126 39.0664)">
            <stop stop-color="#24D65E"/>
            <stop offset="0.16" stop-color="#1FCB59"/>
            <stop offset="0.45" stop-color="#13AC4B"/>
            <stop offset="0.8" stop-color="#017F36"/>
        </radialGradient>
        <radialGradient id="paint20_radial_11937_25404" cx="0" cy="0" r="1" gradientUnits="userSpaceOnUse" gradientTransform="translate(15.8709 1.72813) rotate(-1.13442) scale(53.1968 38.9815)">
            <stop stop-color="#25D85E"/>
            <stop offset="0.15" stop-color="#20CD59"/>
            <stop offset="0.43" stop-color="#14AE4B"/>
            <stop offset="0.79" stop-color="#017D36"/>
            <stop offset="0.8" stop-color="#007C35"/>
        </radialGradient>
        <radialGradient id="paint21_radial_11937_25404" cx="0" cy="0" r="1" gradientUnits="userSpaceOnUse" gradientTransform="translate(17.0263 1.78793) rotate(-1.13442) scale(53.081 38.8862)">
            <stop stop-color="#27D95F"/>
            <stop offset="0.15" stop-color="#22CE5A"/>
            <stop offset="0.42" stop-color="#16AF4C"/>
            <stop offset="0.77" stop-color="#027E36"/>
            <stop offset="0.8" stop-color="#007934"/>
        </radialGradient>
        <radialGradient id="paint22_radial_11937_25404" cx="0" cy="0" r="1" gradientUnits="userSpaceOnUse" gradientTransform="translate(16.6311 1.84984) rotate(-1.1233) scale(53.4855 38.7986)">
            <stop stop-color="#29DB60"/>
            <stop offset="0.14" stop-color="#24D05B"/>
            <stop offset="0.4" stop-color="#18B14D"/>
            <stop offset="0.74" stop-color="#048037"/>
            <stop offset="0.8" stop-color="#007632"/>
        </radialGradient>
        <radialGradient id="paint23_radial_11937_25404" cx="0" cy="0" r="1" gradientUnits="userSpaceOnUse" gradientTransform="translate(16.5855 1.91857) rotate(-1.1233) scale(53.3686 38.7138)">
            <stop stop-color="#2BDC61"/>
            <stop offset="0.14" stop-color="#26D15C"/>
            <stop offset="0.39" stop-color="#1AB24E"/>
            <stop offset="0.71" stop-color="#068138"/>
            <stop offset="0.8" stop-color="#007331"/>
        </radialGradient>
        <radialGradient id="paint24_radial_11937_25404" cx="0" cy="0" r="1" gradientUnits="userSpaceOnUse" gradientTransform="translate(16.5392 1.99404) rotate(-1.1233) scale(53.2477 38.6261)">
            <stop stop-color="#2CDE61"/>
            <stop offset="0.13" stop-color="#27D35C"/>
            <stop offset="0.37" stop-color="#1BB44E"/>
            <stop offset="0.69" stop-color="#088339"/>
            <stop offset="0.8" stop-color="#007030"/>
        </radialGradient>
        <radialGradient id="paint25_radial_11937_25404" cx="0" cy="0" r="1" gradientUnits="userSpaceOnUse" gradientTransform="translate(16.4878 1.61115) rotate(-0.561705) scale(53.1231 38.5417)">
            <stop stop-color="#2EDF62"/>
            <stop offset="0.13" stop-color="#29D45D"/>
            <stop offset="0.37" stop-color="#1DB54F"/>
            <stop offset="0.67" stop-color="#098439"/>
            <stop offset="0.8" stop-color="#006E2F"/>
        </radialGradient>
        <radialGradient id="paint26_radial_11937_25404" cx="0" cy="0" r="1" gradientUnits="userSpaceOnUse" gradientTransform="translate(16.429 1.67103) rotate(-0.561705) scale(53.0062 38.4569)">
            <stop stop-color="#30E163"/>
            <stop offset="0.13" stop-color="#2BD65E"/>
            <stop offset="0.35" stop-color="#1FB750"/>
            <stop offset="0.65" stop-color="#0B8639"/>
            <stop offset="0.8" stop-color="#006B2D"/>
        </radialGradient>
        <radialGradient id="paint27_radial_11937_25404" cx="0" cy="0" r="1" gradientUnits="userSpaceOnUse" gradientTransform="translate(16.3714 1.73745) rotate(-0.561706) scale(52.8853 38.3692)">
            <stop stop-color="#31E263"/>
            <stop offset="0.12" stop-color="#2CD75E"/>
            <stop offset="0.34" stop-color="#20B850"/>
            <stop offset="0.63" stop-color="#0D873A"/>
            <stop offset="0.8" stop-color="#00682C"/>
        </radialGradient>
        <radialGradient id="paint28_radial_11937_25404" cx="0" cy="0" r="1" gradientUnits="userSpaceOnUse" gradientTransform="translate(16.304 1.8072) rotate(-0.561706) scale(52.7684 38.2843)">
            <stop stop-color="#33E364"/>
            <stop offset="0.12" stop-color="#2ED85F"/>
            <stop offset="0.34" stop-color="#22B951"/>
            <stop offset="0.62" stop-color="#0E883B"/>
            <stop offset="0.8" stop-color="#00652B"/>
        </radialGradient>
        <radialGradient id="paint29_radial_11937_25404" cx="0" cy="0" r="1" gradientUnits="userSpaceOnUse" gradientTransform="translate(16.2342 1.88226) rotate(-0.561705) scale(52.6475 38.1967)">
            <stop stop-color="#35E565"/>
            <stop offset="0.12" stop-color="#30DA60"/>
            <stop offset="0.33" stop-color="#24BB52"/>
            <stop offset="0.6" stop-color="#108A3C"/>
            <stop offset="0.8" stop-color="#00622A"/>
        </radialGradient>
        <radialGradient id="paint30_radial_11937_25404" cx="0" cy="0" r="1" gradientUnits="userSpaceOnUse" gradientTransform="translate(16.1645 1.96001) rotate(-0.561705) scale(52.5306 38.1118)">
            <stop stop-color="#37E666"/>
            <stop offset="0.11" stop-color="#32DB61"/>
            <stop offset="0.32" stop-color="#26BC53"/>
            <stop offset="0.59" stop-color="#128B3C"/>
            <stop offset="0.8" stop-color="#005F28"/>
        </radialGradient>
        <radialGradient id="paint31_radial_11937_25404" cx="0" cy="0" r="1" gradientUnits="userSpaceOnUse" gradientTransform="translate(16.086 2.04476) rotate(-0.561705) scale(52.4098 38.0241)">
            <stop stop-color="#38E866"/>
            <stop offset="0.11" stop-color="#33DD61"/>
            <stop offset="0.31" stop-color="#27BE53"/>
            <stop offset="0.57" stop-color="#148D3D"/>
            <stop offset="0.8" stop-color="#005C27"/>
        </radialGradient>
        <radialGradient id="paint32_radial_11937_25404" cx="0" cy="0" r="1" gradientUnits="userSpaceOnUse" gradientTransform="translate(16.0041 2.13533) rotate(-0.561706) scale(52.2928 37.9393)">
            <stop stop-color="#3AE967"/>
            <stop offset="0.11" stop-color="#35DE62"/>
            <stop offset="0.3" stop-color="#29BF54"/>
            <stop offset="0.56" stop-color="#158E3E"/>
            <stop offset="0.8" stop-color="#005926"/>
        </radialGradient>
        <radialGradient id="paint33_radial_11937_25404" cx="0" cy="0" r="1" gradientUnits="userSpaceOnUse" gradientTransform="translate(15.9224 2.2286) rotate(-0.561705) scale(52.1759 37.8545)">
            <stop stop-color="#3CEB68"/>
            <stop offset="0.11" stop-color="#37E063"/>
            <stop offset="0.29" stop-color="#2BC155"/>
            <stop offset="0.54" stop-color="#17903F"/>
            <stop offset="0.8" stop-color="#005625"/>
        </radialGradient>
        <radialGradient id="paint34_radial_11937_25404" cx="0" cy="0" r="1" gradientUnits="userSpaceOnUse" gradientTransform="translate(15.8295 2.32861) rotate(-0.561705) scale(52.055 37.7668)">
            <stop stop-color="#3EEC69"/>
            <stop offset="0.1" stop-color="#39E164"/>
            <stop offset="0.29" stop-color="#2DC256"/>
            <stop offset="0.53" stop-color="#19913F"/>
            <stop offset="0.8" stop-color="#005323"/>
        </radialGradient>
        <radialGradient id="paint35_radial_11937_25404" cx="0" cy="0" r="1" gradientUnits="userSpaceOnUse" gradientTransform="translate(15.7356 1.7342) scale(51.9356 37.6787)">
            <stop stop-color="#3FEE69"/>
            <stop offset="0.1" stop-color="#3AE364"/>
            <stop offset="0.28" stop-color="#2EC456"/>
            <stop offset="0.52" stop-color="#1A9340"/>
            <stop offset="0.8" stop-color="#005122"/>
        </radialGradient>
        <radialGradient id="paint36_radial_11937_25404" cx="0" cy="0" r="1" gradientUnits="userSpaceOnUse" gradientTransform="translate(16.961 1.81798) scale(52.3228 37.5911)">
            <stop stop-color="#41EF6A"/>
            <stop offset="0.1" stop-color="#3CE465"/>
            <stop offset="0.28" stop-color="#30C557"/>
            <stop offset="0.51" stop-color="#1C9441"/>
            <stop offset="0.79" stop-color="#015022"/>
            <stop offset="0.8" stop-color="#004E21"/>
        </radialGradient>
        <radialGradient id="paint37_radial_11937_25404" cx="0" cy="0" r="1" gradientUnits="userSpaceOnUse" gradientTransform="translate(16.8852 1.90802) scale(52.2086 37.5091)">
            <stop stop-color="#43F16B"/>
            <stop offset="0.1" stop-color="#3EE666"/>
            <stop offset="0.27" stop-color="#32C758"/>
            <stop offset="0.5" stop-color="#1E9642"/>
            <stop offset="0.77" stop-color="#035223"/>
            <stop offset="0.8" stop-color="#004B20"/>
        </radialGradient>
        <radialGradient id="paint38_radial_11937_25404" cx="0" cy="0" r="1" gradientUnits="userSpaceOnUse" gradientTransform="translate(16.8141 2.00386) scale(52.0905 37.4243)">
            <stop stop-color="#45F26C"/>
            <stop offset="0.1" stop-color="#40E767"/>
            <stop offset="0.27" stop-color="#34C859"/>
            <stop offset="0.49" stop-color="#209742"/>
            <stop offset="0.76" stop-color="#055323"/>
            <stop offset="0.8" stop-color="#00481E"/>
        </radialGradient>
        <radialGradient id="paint39_radial_11937_25404" cx="0" cy="0" r="1" gradientUnits="userSpaceOnUse" gradientTransform="translate(16.7387 2.10658) scale(51.9685 37.3366)">
            <stop stop-color="#46F46C"/>
            <stop offset="0.09" stop-color="#41E967"/>
            <stop offset="0.26" stop-color="#35CA59"/>
            <stop offset="0.48" stop-color="#229943"/>
            <stop offset="0.74" stop-color="#065524"/>
            <stop offset="0.8" stop-color="#00451D"/>
        </radialGradient>
        <radialGradient id="paint40_radial_11937_25404" cx="0" cy="0" r="1" gradientUnits="userSpaceOnUse" gradientTransform="translate(16.6667 2.21476) scale(51.8464 37.2489)">
            <stop stop-color="#48F56D"/>
            <stop offset="0.09" stop-color="#43EA68"/>
            <stop offset="0.25" stop-color="#37CB5A"/>
            <stop offset="0.47" stop-color="#239A44"/>
            <stop offset="0.73" stop-color="#085625"/>
            <stop offset="0.8" stop-color="#00421C"/>
        </radialGradient>
        <linearGradient id="paint41_linear_11937_25404" x1="17.5094" y1="28.9975" x2="13.0382" y2="-3.0646" gradientUnits="userSpaceOnUse">
            <stop offset="0.1" stop-color="#FF8475"/>
            <stop offset="0.37" stop-color="#E84E43"/>
            <stop offset="0.6" stop-color="#D6261F"/>
            <stop offset="0.79" stop-color="#CC0E08"/>
            <stop offset="0.9" stop-color="#C80500"/>
        </linearGradient>
        <clipPath id="clip0_11937_25404">
            <rect width="24" height="24" fill="white"/>
        </clipPath>
    </defs>
</svg>
