<svg width="24" height="24" viewBox="0 0 24 24" fill="none" xmlns="http://www.w3.org/2000/svg">
<path d="M5.5 12C5.5 11.7239 5.27614 11.5 5 11.5C4.72386 11.5 4.5 11.7239 4.5 12H5.5ZM5 19.2H4.5H5ZM19.5 12C19.5 11.7239 19.2761 11.5 19 11.5C18.7239 11.5 18.5 11.7239 18.5 12H19.5ZM15.1415 6.94854C15.334 7.14653 15.6505 7.15099 15.8485 6.9585C16.0465 6.766 16.051 6.44945 15.8585 6.25146L15.1415 6.94854ZM12 3L12.3585 2.65146L12 2.28272L11.6415 2.65146L12 3ZM8.1415 6.25146C7.94901 6.44945 7.95347 6.766 8.15146 6.9585C8.34945 7.15099 8.666 7.14653 8.8585 6.94854L8.1415 6.25146ZM11.5 14.7C11.5 14.9761 11.7239 15.2 12 15.2C12.2761 15.2 12.5 14.9761 12.5 14.7H11.5ZM5 12H4.5V19.2H5H5.5V12H5ZM5 19.2H4.5C4.5 19.8055 4.73373 20.389 5.15407 20.8213L5.51256 20.4728L5.87106 20.1243C5.63502 19.8815 5.5 19.5493 5.5 19.2H5ZM5.51256 20.4728L5.15407 20.8213C5.57487 21.2542 6.14864 21.5 6.75 21.5V21V20.5C6.4231 20.5 6.10664 20.3666 5.87106 20.1243L5.51256 20.4728ZM6.75 21V21.5H17.25V21V20.5H6.75V21ZM17.25 21V21.5C17.8514 21.5 18.4251 21.2542 18.8459 20.8213L18.4874 20.4728L18.1289 20.1243C17.8934 20.3666 17.5769 20.5 17.25 20.5V21ZM18.4874 20.4728L18.8459 20.8213C19.2663 20.389 19.5 19.8055 19.5 19.2H19H18.5C18.5 19.5493 18.365 19.8815 18.1289 20.1243L18.4874 20.4728ZM19 19.2H19.5V12H19H18.5V19.2H19ZM15.5 6.6L15.8585 6.25146L12.3585 2.65146L12 3L11.6415 3.34854L15.1415 6.94854L15.5 6.6ZM12 3L11.6415 2.65146L8.1415 6.25146L8.5 6.6L8.8585 6.94854L12.3585 3.34854L12 3ZM12 3H11.5V14.7H12H12.5V3H12Z" fill="black"/>
</svg>
