<svg width="25" height="24" viewBox="0 0 25 24" fill="none" xmlns="http://www.w3.org/2000/svg">
<path d="M15.3357 19C15.3357 20.6569 14.0661 22 12.5 22C10.9339 22 9.66432 20.6569 9.66432 19M14.1981 6.23856C14.6097 5.78864 14.8631 5.17562 14.8631 4.5C14.8631 3.11929 13.8051 2 12.5 2C11.1949 2 10.1369 3.11929 10.1369 4.5C10.1369 5.17562 10.3903 5.78864 10.8019 6.23856M18.1714 11.2C18.1714 9.82087 17.5738 8.49823 16.5103 7.52304C15.4467 6.54786 14.0041 6 12.5 6C10.9959 6 9.55333 6.54786 8.48975 7.52304C7.42616 8.49823 6.82865 9.82087 6.82865 11.2C6.82865 13.4818 6.29377 15.1506 5.62638 16.3447C4.86573 17.7056 4.48541 18.3861 4.50043 18.5486C4.51761 18.7346 4.54925 18.7933 4.69181 18.9036C4.81642 19 5.44248 19 6.6946 19H18.3054C19.5575 19 20.1836 19 20.3082 18.9036C20.4508 18.7933 20.4824 18.7346 20.4996 18.5486C20.5146 18.3861 20.1343 17.7056 19.3736 16.3447C18.7062 15.1506 18.1714 13.4818 18.1714 11.2Z" stroke="black" stroke-linecap="round" stroke-linejoin="round"/>
</svg>
