<svg width="32" height="31" viewBox="0 0 32 31" fill="none" xmlns="http://www.w3.org/2000/svg">
<path d="M31 15.5V20.2316C31 23.6508 31 25.3605 30.346 26.6665C29.7708 27.8152 28.8529 28.7492 27.7239 29.3346C26.4405 30 24.7603 30 21.4 30H10.6C7.23969 30 5.55953 30 4.27606 29.3346C3.14708 28.7492 2.2292 27.8152 1.65396 26.6665C1 25.3605 1 23.6508 1 20.2316V12.2947C1 8.87547 1 7.16584 1.65396 5.85985C2.2292 4.71107 3.14708 3.77708 4.27606 3.19175C5.55953 2.52632 7.23969 2.52632 10.6 2.52632H16.75M26.5 10.1579V1M22 5.57895H31M22 16.2632C22 19.635 19.3137 22.3684 16 22.3684C12.6863 22.3684 10 19.635 10 16.2632C10 12.8913 12.6863 10.1579 16 10.1579C19.3137 10.1579 22 12.8913 22 16.2632Z" stroke="black" stroke-linecap="round" stroke-linejoin="round"/>
</svg>
