<svg width="24" height="24" viewBox="0 0 24 24" fill="none" xmlns="http://www.w3.org/2000/svg">
<path d="M19.1795 9C18.9268 9.41611 18.6498 9.80939 18.3517 10.177M4.85781 9C5.14849 9.42549 5.44733 9.8174 5.75291 10.177M12.0186 13.4443V16M12.0186 13.4443C10.8323 13.441 9.61769 13.132 8.43823 12.4604M12.0186 13.4443C13.2979 13.4479 14.5442 13.0962 15.6782 12.4604M8.43823 12.4604C8.04541 12.2367 7.65648 11.9728 7.2738 11.6666C6.75333 11.2501 6.2444 10.7554 5.75291 10.177M8.43823 12.4604L6.90909 14.5M5.75291 10.177L4 11.5001M15.6782 12.4604L17.0909 14.5M15.6782 12.4604C16.674 11.9021 17.5831 11.1249 18.3517 10.177M18.3517 10.177L20 11.5001" stroke="#B3B3B3" stroke-linecap="round"/>
</svg>
