<svg width="24" height="24" viewBox="0 0 24 24" fill="none" xmlns="http://www.w3.org/2000/svg">
<circle cx="12" cy="14.5" r="3" stroke="#B3B3B3"/>
<path d="M4.82051 13C5.0732 12.5839 5.35017 12.1906 5.64826 11.823M19.1422 13C18.8515 12.5745 18.5527 12.1826 18.2471 11.823M11.9814 8.55566L11.9814 6M11.9814 8.55566C13.1677 8.55899 14.3823 8.86798 15.5618 9.53958M11.9814 8.55566C10.7021 8.55206 9.4558 8.90384 8.32183 9.53958M15.5618 9.53958C15.9546 9.76325 16.3435 10.0272 16.7262 10.3334C17.2467 10.7499 17.7556 11.2446 18.2471 11.823M15.5618 9.53958L17.0909 7.49998M18.2471 11.823L20 10.4999M8.32183 9.53958L6.90909 7.49998M8.32183 9.53958C7.32603 10.0979 6.4169 10.8751 5.64826 11.823M5.64826 11.823L4 10.4999" stroke="#B3B3B3" stroke-linecap="round"/>
</svg>
