<svg width="32" height="32" viewBox="0 0 32 32" fill="none" xmlns="http://www.w3.org/2000/svg">
<path d="M6 3.5H12C13.3807 3.5 14.5 4.61929 14.5 6V12C14.5 13.3807 13.3807 14.5 12 14.5H6C4.61929 14.5 3.5 13.3807 3.5 12V6C3.5 4.61929 4.61929 3.5 6 3.5Z" stroke="black"/>
<path d="M6 17.5H12C13.3807 17.5 14.5 18.6193 14.5 20V26C14.5 27.3807 13.3807 28.5 12 28.5H6C4.61929 28.5 3.5 27.3807 3.5 26V20C3.5 18.6193 4.61929 17.5 6 17.5Z" stroke="black"/>
<path d="M20 3.5H26C27.3807 3.5 28.5 4.61929 28.5 6V12C28.5 13.3807 27.3807 14.5 26 14.5H20C18.6193 14.5 17.5 13.3807 17.5 12V6C17.5 4.61929 18.6193 3.5 20 3.5Z" stroke="black"/>
<path d="M20 17.5H26C27.3807 17.5 28.5 18.6193 28.5 20V26C28.5 27.3807 27.3807 28.5 26 28.5H20C18.6193 28.5 17.5 27.3807 17.5 26V20C17.5 18.6193 18.6193 17.5 20 17.5Z" stroke="black"/>
</svg>
