<svg width="32" height="32" viewBox="0 0 32 32" fill="none" xmlns="http://www.w3.org/2000/svg">
<path d="M6 3.5H26C27.3807 3.5 28.5 4.61929 28.5 6V16C28.5 17.3807 27.3807 18.5 26 18.5H6C4.61929 18.5 3.5 17.3807 3.5 16V6C3.5 4.61929 4.61929 3.5 6 3.5Z" stroke="black"/>
<path d="M6 21.5H12C13.3807 21.5 14.5 22.6193 14.5 24V26C14.5 27.3807 13.3807 28.5 12 28.5H6C4.61929 28.5 3.5 27.3807 3.5 26V24C3.5 22.6193 4.61929 21.5 6 21.5Z" stroke="black"/>
<path d="M20 21.5H26C27.3807 21.5 28.5 22.6193 28.5 24V26C28.5 27.3807 27.3807 28.5 26 28.5H20C18.6193 28.5 17.5 27.3807 17.5 26V24C17.5 22.6193 18.6193 21.5 20 21.5Z" stroke="black"/>
</svg>
