<svg width="20" height="20" viewBox="0 0 20 20" fill="none" xmlns="http://www.w3.org/2000/svg">
<path d="M15.4799 5.625H4.52155C4.36776 5.62572 4.21949 5.68242 4.10447 5.78451C3.98944 5.88659 3.91553 6.02707 3.89655 6.17969L2.78717 16.1797C2.77731 16.2668 2.78588 16.355 2.81235 16.4386C2.83881 16.5222 2.88257 16.5993 2.94078 16.6649C2.99899 16.7305 3.07035 16.7831 3.15022 16.8193C3.23009 16.8555 3.31668 16.8745 3.40436 16.875H16.5971C16.6848 16.8745 16.7713 16.8555 16.8512 16.8193C16.9311 16.7831 17.0024 16.7305 17.0606 16.6649C17.1189 16.5993 17.1626 16.5222 17.1891 16.4386C17.2155 16.355 17.2241 16.2668 17.2143 16.1797L16.1049 6.17969C16.0859 6.02707 16.012 5.88659 15.897 5.78451C15.7819 5.68242 15.6337 5.62572 15.4799 5.625Z" stroke="white" stroke-linecap="round" stroke-linejoin="round"/>
<path d="M6.875 8.125V5.625C6.875 4.7962 7.20424 4.00134 7.79029 3.41529C8.37634 2.82924 9.1712 2.5 10 2.5C10.8288 2.5 11.6237 2.82924 12.2097 3.41529C12.7958 4.00134 13.125 4.7962 13.125 5.625V8.125" stroke="white" stroke-linecap="round" stroke-linejoin="round"/>
</svg>
