<svg width="24" height="24" viewBox="0 0 24 24" fill="none" xmlns="http://www.w3.org/2000/svg">
<path d="M16.9502 3.5C20.0613 3.5001 22.5 5.78219 22.5 8.5C22.4999 11.464 20.64 14.3401 17.3857 17.0527C16.5596 17.7409 15.6834 18.3682 14.7949 18.9473L13.9043 19.5107C13.4858 19.767 13.0987 19.9968 12.7549 20.1865C12.5094 20.3221 12.406 20.3871 12.3252 20.4277H12.3242C12.1339 20.5239 11.8661 20.5239 11.6758 20.4277H11.6748C11.594 20.3871 11.4906 20.3221 11.2451 20.1865C11.0732 20.0916 10.8903 19.9862 10.6982 19.873L10.0957 19.5107C8.90612 18.7796 7.71571 17.9703 6.61426 17.0527C3.36003 14.3401 1.50013 11.464 1.5 8.5C1.5 5.78219 3.93872 3.5001 7.0498 3.5C8.90304 3.5 10.6065 4.35003 11.6465 5.62793L12.0264 6.09375L12.415 5.63574C13.4922 4.36743 15.2097 3.5 16.9502 3.5Z" fill="white" stroke="#1B1F27"/>
</svg>
