<?xml version="1.0" encoding="utf-8"?>
<!-- Generator: Adobe Illustrator 26.0.3, SVG Export Plug-In . SVG Version: 6.00 Build 0)  -->
<svg version="1.1" id="Layer_1" xmlns="http://www.w3.org/2000/svg" xmlns:xlink="http://www.w3.org/1999/xlink" x="0px" y="0px"
    viewBox="0 0 73.7 73.7" style="enable-background:new 0 0 73.7 73.7;" xml:space="preserve">
<g>
	<g id="sign-flat_00000060719587415794451980000004000719010394864773_">
		<path d="M73.65,38.36c-0.38,9.01-4.31,17.85-10.81,24.22c-6.43,6.43-15.4,10.32-24.58,10.55c-9.15,0.34-18.44-2.89-25.43-8.95
			c-7.02-5.99-11.74-14.72-12.77-24c-0.01-0.09-0.02-0.27-0.02-0.48c-0.01-0.07-0.03-0.13-0.03-0.19c-0.26-4.05,2.82-7.55,6.88-7.81
			c4.05-0.26,7.55,2.82,7.81,6.88c0.01,0.11-0.01,0.22-0.01,0.34c0.01,0.01,0.03,0.04,0.03,0.05c0.36,4.99,2.47,9.89,5.91,13.72
			c3.47,3.77,8.2,6.58,13.43,7.44c5.2,0.98,10.77,0.16,15.6-2.32c4.43-2.29,8.18-5.98,10.6-10.47c0.03-0.06,0.13-0.04,0.09,0.04
			c-2.1,4.7-5.66,8.82-10.16,11.56c-4.89,2.98-10.84,4.34-16.66,3.64c-5.84-0.57-11.46-3.32-15.76-7.47
			c-2.85-2.73-5.04-6.17-6.47-9.9c-0.07-0.16-0.33-0.08-0.27,0.12c1.25,4.12,3.54,7.99,6.56,11.19c4.39,4.64,10.45,7.67,16.9,8.59
			c6.46,0.86,13.28-0.46,18.97-3.94c5.29-3.17,9.61-8.07,12.11-13.85c0.03-0.07,0.12-0.06,0.08,0.04
			c-2.16,5.97-6.27,11.28-11.61,14.92c-5.74,3.99-12.95,5.83-20.02,5.29c-7.09-0.58-14-3.63-19.29-8.59
			c-3.64-3.46-6.4-7.82-8.1-12.6c-0.06-0.2-0.34-0.1-0.29,0.06c1.77,5.69,5.14,10.83,9.67,14.78c6.1,5.41,14.29,8.4,22.52,8.2
			c8.22-0.11,16.4-3.44,22.37-9.23c6.02-5.73,9.79-13.79,10.28-22.17c0.58-8.36-2.08-16.94-7.42-23.53
			C58.48,7.82,50.6,3.29,42.15,2.07c-8.44-1.3-17.4,0.63-24.53,5.5c-6.37,4.3-11.21,10.78-13.64,18.14
			c-0.04,0.14-0.19,0.12-0.16,0.01c2.26-7.47,7.07-14.16,13.49-18.7c7.17-5.12,16.34-7.33,25.13-6.16
			c8.81,1.09,17.15,5.67,22.88,12.55C71.1,20.25,74.13,29.36,73.65,38.36z M69.89,32.56c-0.02-0.12-0.05-0.24-0.07-0.35
			c-0.01-0.05-0.02-0.1-0.03-0.15c-1.11-7.25-4.75-13.97-10.02-18.84C54.4,8.19,47.25,5.27,40.06,4.85
			c-7.2-0.47-14.46,1.72-20.16,5.92c-5.02,3.66-8.87,8.83-10.9,14.59c-0.05,0.14,0.12,0.16,0.17,0.04
			c2.35-5.56,6.37-10.33,11.35-13.54c5.66-3.69,12.55-5.32,19.12-4.53c6.56,0.74,12.81,3.69,17.3,8.37
			c2.97,3.05,5.23,6.74,6.59,10.7c0.07,0.2-0.2,0.3-0.28,0.1c-1.58-3.72-3.93-7.12-6.86-9.8c-4.59-4.24-10.64-6.68-16.71-7.01
			c-6.09-0.37-12.2,1.51-16.98,5.05c-4.13,3.04-7.3,7.28-9.02,12c-0.05,0.14,0.1,0.22,0.16,0.08c2.02-4.54,5.38-8.41,9.49-11.01
			c4.76-3.04,10.5-4.35,15.97-3.66c5.45,0.66,10.62,3.14,14.31,7.05c2.29,2.38,4.1,5.22,5.25,8.27c0.08,0.23-0.17,0.34-0.27,0.15
			c-1.33-3.1-3.34-5.9-5.85-8.11c-4.07-3.62-9.47-5.73-14.86-5.68c-5.38-0.02-10.72,1.97-14.71,5.48c-4.03,3.48-6.65,8.46-7.3,13.66
			c-0.69,5.19,0.53,10.6,3.47,14.87c2.88,4.29,7.33,7.45,12.26,8.75c4.93,1.35,10.28,0.74,14.78-1.5c4.03-2.01,7.32-5.34,9.31-9.31
			c0.04-0.07-0.01-0.1-0.05-0.04c-2.14,3.86-5.52,6.98-9.49,8.77c-4.44,1.99-9.56,2.33-14.14,0.89c-4.58-1.39-8.57-4.49-11.05-8.5
			c-2.53-3.99-3.4-8.89-2.64-13.45c0.73-4.57,3.19-8.81,6.75-11.66c3.53-2.9,8.07-4.39,12.56-4.24c4.49,0.13,8.82,1.99,12.02,5.02
			c3.2,3.01,5.29,7.16,5.65,11.48c0.01,0.09,0.03,0.26,0.08,0.46c0.4,3.76,3.6,6.67,7.45,6.58c4.06-0.09,7.28-3.46,7.18-7.53
			c0-0.22-0.06-0.42-0.08-0.63C69.91,32.77,69.91,32.63,69.89,32.56z"/>
	</g>
</g>
</svg>
