<svg width="24" height="24" viewBox="0 0 24 24" fill="none" xmlns="http://www.w3.org/2000/svg">
    <path d="M14.8389 14.25C18.0217 14.2501 20.5 17.2473 20.5 20.75C20.5 21.0261 20.2761 21.25 20 21.25C19.7239 21.25 19.5 21.0261 19.5 20.75C19.5 17.653 17.3334 15.2501 14.8389 15.25H9.16113C6.66664 15.2501 4.5 17.653 4.5 20.75C4.5 21.0261 4.27614 21.25 4 21.25C3.72386 21.25 3.5 21.0261 3.5 20.75C3.5 17.2473 5.97836 14.2501 9.16113 14.25H14.8389ZM12 2.75C14.7369 2.75 17 5.01315 17 7.75C17 10.4869 14.7369 12.75 12 12.75C9.26316 12.75 7 10.4868 7 7.75C7.00001 5.01316 9.26316 2.75001 12 2.75ZM12 3.75C9.81545 3.75001 8.00001 5.56545 8 7.75C8 9.93455 9.81543 11.75 12 11.75C14.1846 11.75 16 9.93457 16 7.75C16 5.56542 14.1846 3.75 12 3.75Z" fill="#1B1F27"/>
</svg>
