<svg width="24" height="24" viewBox="0 0 24 24" fill="none" xmlns="http://www.w3.org/2000/svg">
<rect width="24" height="24" />
<path fill-rule="evenodd" clip-rule="evenodd" d="M17.5 11C17.5 14.5899 14.5899 17.5 11 17.5C7.41015 17.5 4.5 14.5899 4.5 11C4.5 7.41015 7.41015 4.5 11 4.5C14.5899 4.5 17.5 7.41015 17.5 11ZM15.4458 17.6519C14.1743 18.5034 12.6452 19 11 19C6.58172 19 3 15.4183 3 11C3 6.58172 6.58172 3 11 3C15.4183 3 19 6.58172 19 11C19 13.2334 18.0848 15.253 16.609 16.7043L19.592 20.5396L18.408 21.4605L15.4458 17.6519Z" fill="black"/>
</svg>
