<svg width="24" height="24" viewBox="0 0 24 24" fill="none" xmlns="http://www.w3.org/2000/svg">
    <path d="M12.4127 18.2551L17.1377 21.2551C17.7471 21.6395 18.4971 21.0676 18.319 20.3645L16.9502 14.9832C16.9132 14.8341 16.9191 14.6775 16.9672 14.5315C17.0153 14.3856 17.1037 14.2562 17.2221 14.1582L21.4596 10.6239C22.0127 10.1645 21.7315 9.23635 21.0096 9.18948L15.4784 8.83323C15.3274 8.82444 15.1823 8.77189 15.0608 8.68199C14.9393 8.59208 14.8466 8.46872 14.794 8.32698L12.7315 3.13323C12.6769 2.98314 12.5774 2.85348 12.4466 2.76186C12.3158 2.67024 12.16 2.62109 12.0002 2.62109C11.8405 2.62109 11.6847 2.67024 11.5539 2.76186C11.423 2.85348 11.3236 2.98314 11.269 3.13323L9.20649 8.32698C9.15392 8.46872 9.06121 8.59208 8.93967 8.68199C8.81813 8.77189 8.67304 8.82444 8.52212 8.83323L2.99087 9.18948C2.26899 9.23635 1.98774 10.1645 2.54087 10.6239L6.77837 14.1582C6.8968 14.2562 6.98516 14.3856 7.03327 14.5315C7.08137 14.6775 7.08725 14.8341 7.05024 14.9832L5.78462 19.9707C5.56899 20.8145 6.46899 21.4988 7.19087 21.0395L11.5877 18.2551C11.711 18.1767 11.8541 18.1351 12.0002 18.1351C12.1464 18.1351 12.2894 18.1767 12.4127 18.2551Z" fill="#AC46F0"/>
</svg>
