<svg width="40" height="40" viewBox="0 0 40 40" fill="none" xmlns="http://www.w3.org/2000/svg">
    <path d="M20.4125 26.2552L25.1375 29.2552C25.7469 29.6396 26.4969 29.0677 26.3187 28.3646L24.95 22.9833C24.913 22.8342 24.9189 22.6776 24.967 22.5316C25.0151 22.3857 25.1034 22.2563 25.2219 22.1583L29.4594 18.624C30.0125 18.1646 29.7312 17.2365 29.0094 17.1896L23.4781 16.8333C23.3272 16.8246 23.1821 16.772 23.0606 16.6821C22.939 16.5922 22.8463 16.4688 22.7937 16.3271L20.7312 11.1333C20.6767 10.9833 20.5772 10.8536 20.4464 10.762C20.3156 10.6704 20.1597 10.6212 20 10.6212C19.8403 10.6212 19.6844 10.6704 19.5536 10.762C19.4228 10.8536 19.3233 10.9833 19.2687 11.1333L17.2062 16.3271C17.1537 16.4688 17.061 16.5922 16.9394 16.6821C16.8179 16.772 16.6728 16.8246 16.5219 16.8333L10.9906 17.1896C10.2687 17.2365 9.9875 18.1646 10.5406 18.624L14.7781 22.1583C14.8966 22.2563 14.9849 22.3857 15.033 22.5316C15.0811 22.6776 15.087 22.8342 15.05 22.9833L13.7844 27.9708C13.5687 28.8146 14.4687 29.499 15.1906 29.0396L19.5875 26.2552C19.7108 26.1768 19.8539 26.1352 20 26.1352C20.1461 26.1352 20.2892 26.1768 20.4125 26.2552Z" fill="#AC46F0"/>
</svg>
