<svg width="24" height="24" viewBox="0 0 24 24" fill="none" xmlns="http://www.w3.org/2000/svg">
<path d="M14.8357 19C14.8357 20.6569 13.5661 22 12 22C10.4339 22 9.16432 20.6569 9.16432 19M13.6981 6.23856C14.1097 5.78864 14.3631 5.17562 14.3631 4.5C14.3631 3.11929 13.3051 2 12 2C10.6949 2 9.63694 3.11929 9.63694 4.5C9.63694 5.17562 9.89026 5.78864 10.3019 6.23856M17.6714 11.2C17.6714 9.82087 17.0738 8.49823 16.0103 7.52304C14.9467 6.54786 13.5041 6 12 6C10.4959 6 9.05333 6.54786 7.98975 7.52304C6.92616 8.49823 6.32865 9.82087 6.32865 11.2C6.32865 13.4818 5.79377 15.1506 5.12638 16.3447C4.36573 17.7056 3.98541 18.3861 4.00043 18.5486C4.01761 18.7346 4.04925 18.7933 4.19181 18.9036C4.31642 19 4.94248 19 6.1946 19H17.8054C19.0575 19 19.6836 19 19.8082 18.9036C19.9508 18.7933 19.9824 18.7346 19.9996 18.5486C20.0146 18.3861 19.6343 17.7056 18.8736 16.3447C18.2062 15.1506 17.6714 13.4818 17.6714 11.2Z" stroke="white" stroke-linecap="round" stroke-linejoin="round"/>
</svg>
