<svg width="24" height="25" viewBox="0 0 24 25" fill="none" xmlns="http://www.w3.org/2000/svg">
    <path d="M10.9924 1.71538C11.5642 1.1966 12.4362 1.1966 13.008 1.71538L14.8293 3.36773C15.1201 3.63159 15.5033 3.77061 15.8957 3.75542L18.3537 3.66069C19.1251 3.63093 19.7931 4.1917 19.8976 4.95659L20.2306 7.39312C20.2838 7.78213 20.4877 8.13495 20.798 8.37554L22.7424 9.88335C23.3522 10.3564 23.5033 11.2147 23.092 11.8677L21.7804 13.9488C21.5711 14.2809 21.5011 14.6823 21.5842 15.066L22.1047 17.4703C22.268 18.2249 21.8311 18.9806 21.0959 19.2164L18.7541 19.9673C18.3801 20.0873 18.068 20.3494 17.8849 20.6968L16.7384 22.8726C16.3786 23.5557 15.5587 23.854 14.8439 23.5621L12.5676 22.6324C12.204 22.4839 11.7963 22.4839 11.4328 22.6324L9.15544 23.5621C8.4407 23.854 7.62079 23.5557 7.26091 22.8726L6.11443 20.6968C5.93145 20.3495 5.62001 20.0873 5.24626 19.9673L2.90349 19.2164C2.16831 18.9806 1.7323 18.2249 1.89568 17.4703L2.41618 15.066C2.49916 14.6823 2.4282 14.2809 2.21892 13.9488L0.907394 11.8677C0.496174 11.2146 0.648007 10.3563 1.25798 9.88335L3.20232 8.37554C3.51242 8.13496 3.71557 7.782 3.76872 7.39312L4.10173 4.95659C4.20629 4.19163 4.87516 3.63083 5.64665 3.66069L8.10466 3.75542C8.49693 3.77053 8.87934 3.63149 9.17009 3.36773L10.9924 1.71538ZM17.4601 8.89019C16.9572 8.52545 16.2537 8.63731 15.8888 9.14019L11.1125 15.7222L7.39568 12.0054C6.95634 11.5662 6.2432 11.5661 5.80388 12.0054C5.36507 12.4447 5.36487 13.157 5.80388 13.5962L10.2052 17.9976C10.8248 18.6172 11.8517 18.5359 12.3664 17.8267L17.7101 10.4605C18.0748 9.95761 17.9629 9.255 17.4601 8.89019Z" fill="#CEA883"/>
</svg>
