<svg width="15" height="18" viewBox="0 0 15 18" fill="none" xmlns="http://www.w3.org/2000/svg">
<path d="M7 16C10.866 16 14 12.866 14 9C14 5.13401 10.866 2 7 2C3.13401 2 0 5.13401 0 9C0 12.866 3.13401 16 7 16Z" fill="white"/>
<path fill-rule="evenodd" clip-rule="evenodd" d="M14 9C14 12.866 10.866 16 7 16C3.13401 16 0 12.866 0 9C0 5.13401 3.13401 2 7 2C7.75534 2 8.48273 2.11964 9.16427 2.34099L7.56884 7.25H2.90967L2.34034 9H7.00009L5.63509 13.2H7.56009L8.92509 9H14ZM13.7795 7.25H9.49384L10.8297 3.13959C12.2684 4.0817 13.3392 5.53931 13.7795 7.25Z" fill="url(#paint0_linear_11306_39517)"/>
<defs>
<linearGradient id="paint0_linear_11306_39517" x1="-5.53992e-08" y1="8.06667" x2="14" y2="8.06667" gradientUnits="userSpaceOnUse">
<stop stop-color="#FF5C4D"/>
<stop offset="0.4" stop-color="#EB469F"/>
<stop offset="1" stop-color="#8341EF"/>
</linearGradient>
</defs>
</svg>
