<svg width="10" height="12" viewBox="0 0 10 12" fill="none" xmlns="http://www.w3.org/2000/svg">
<path d="M5.15878 6.02518L8.77171 9.80198L8.69801 9.87053L8.66689 9.90062C7.65524 10.8218 6.32964 11.3006 4.97558 11.2338C3.62152 11.167 2.34732 10.56 1.42738 9.5435C0.50745 8.52702 0.0153807 7.18238 0.0571444 5.79915C0.098908 4.41593 0.671164 3.10478 1.65067 2.14806C2.65775 1.20725 3.98738 0.709357 5.35153 0.762243C6.71568 0.81513 8.00449 1.41454 8.93876 2.43061L5.15878 6.02518Z" fill="#01B94F"/>
<path d="M1.65213 2.14644C2.65906 1.20645 3.98819 0.709216 5.35167 0.762413C6.71515 0.81561 8.00323 1.41496 8.93694 2.43066C8.93694 2.43066 5.93163 5.30298 5.87103 5.35313C5.87103 5.35313 5.19791 6.00016 5.20282 6.01019C5.20773 6.02022 8.76333 9.78699 8.76333 9.78699L8.69127 9.85721L8.66015 9.88731C6.5376 11.7933 3.28499 11.7063 1.36388 9.58637C0.441305 8.55798 -0.0460271 7.19923 0.00795732 5.80584C0.0619418 4.41246 0.652873 3.09723 1.65213 2.14644Z" fill="url(#paint0_radial_11306_45208)"/>
<path d="M1.65542 2.14306C2.66315 1.20431 3.99235 0.708206 5.35558 0.762019C6.71881 0.815832 8.00651 1.41524 8.94022 2.43063C8.94022 2.43063 6.01516 5.23941 5.89561 5.33805C5.89561 5.33805 5.2405 5.97671 5.25196 5.99677C5.27653 6.05696 8.76007 9.77024 8.76007 9.77024L8.68801 9.84046L8.65689 9.87055C6.53925 11.7732 3.285 11.6795 1.37044 9.56627C0.449248 8.54071 -0.0376892 7.18513 0.0156862 5.79477C0.0690615 4.4044 0.658426 3.09188 1.65542 2.14306Z" fill="url(#paint1_radial_11306_45208)"/>
<path d="M1.65709 2.14138C2.66487 1.20386 3.99348 0.708682 5.35592 0.762801C6.71836 0.81692 8.00526 1.41599 8.93863 2.43062C8.93863 2.43062 6.09709 5.17419 5.91366 5.32299C5.91366 5.32299 5.28148 5.95162 5.29295 5.98172C5.33061 6.072 8.75192 9.75518 8.75192 9.75518L8.67822 9.8254L8.6471 9.85382C6.53601 11.7514 3.2834 11.6544 1.37212 9.54619C0.45241 8.52352 -0.0337871 7.17104 0.0195995 5.78383C0.0729861 4.39661 0.661623 3.08724 1.65709 2.14138Z" fill="url(#paint2_radial_11306_45208)"/>
<path d="M1.66024 2.13979C2.66815 1.20299 3.99652 0.708421 5.35857 0.762849C6.72061 0.817277 8.00705 1.41634 8.94014 2.4307C8.94014 2.4307 6.18049 5.10573 5.93646 5.30803C5.93646 5.30803 5.32394 5.9283 5.34031 5.96843C5.38945 6.0888 8.74688 9.74022 8.74688 9.74022L8.67482 9.80877C8.67482 9.80877 8.6437 9.83719 8.6437 9.83886C6.53753 11.7298 3.28491 11.6261 1.37854 9.52622C0.460311 8.50666 -0.0254494 7.15763 0.0273295 5.7737C0.0801083 4.38978 0.667139 3.08339 1.66024 2.13979Z" fill="url(#paint3_radial_11306_45208)"/>
<path d="M1.6605 2.13636C2.66866 1.20101 3.99657 0.707656 5.35783 0.762703C6.71908 0.817749 8.0046 1.41679 8.93713 2.43062C8.93713 2.43062 6.26101 5.04546 5.95474 5.2929C5.95474 5.2929 5.36187 5.90314 5.38152 5.95329C5.44376 6.10376 8.73896 9.72341 8.73732 9.72508L8.66526 9.79363L8.63414 9.82372C6.53288 11.7063 3.2819 11.6009 1.38045 9.50607C0.463802 8.48912 -0.0212782 7.14315 0.0311982 5.76224C0.0836747 4.38133 0.669441 3.07776 1.6605 2.13636Z" fill="url(#paint4_radial_11306_45208)"/>
<path d="M1.66454 2.13477C2.67282 1.20014 4.0005 0.707396 5.36136 0.762752C6.72222 0.818108 8.00728 1.41713 8.93952 2.4307C8.93952 2.4307 6.34529 4.98201 5.97843 5.27292C5.97843 5.27292 5.40521 5.87313 5.42977 5.93331C5.50347 6.11388 8.7348 9.70176 8.7348 9.70176L8.66274 9.78703L8.63162 9.81545C6.53363 11.6846 3.28429 11.576 1.38612 9.48609C0.471156 8.47204 -0.0132017 7.12939 0.0389739 5.75177C0.0911495 4.37414 0.675612 3.07367 1.66454 2.13477Z" fill="url(#paint5_radial_11306_45208)"/>
<path d="M1.66534 2.13306C2.67375 1.19915 4.00119 0.707014 5.36166 0.762679C6.72213 0.818344 8.00673 1.41736 8.93868 2.43066C8.93868 2.43066 6.42634 4.91843 5.99888 5.27288C5.99888 5.27288 5.44368 5.86305 5.47152 5.93327C5.56487 6.13557 8.72741 9.69336 8.72577 9.69336L8.65371 9.7619L8.62259 9.792C6.53116 11.6628 3.28182 11.5492 1.38855 9.46598C0.474871 8.45504 -0.00903756 7.11561 0.0428422 5.74115C0.094722 4.36668 0.678159 3.06924 1.66534 2.13306Z" fill="url(#paint6_radial_11306_45208)"/>
<path d="M1.66954 2.12973C2.67829 1.19675 4.00562 0.705514 5.36569 0.761801C6.72577 0.818088 8.00979 1.4174 8.94124 2.43067C8.94124 2.43067 6.51079 4.85324 6.02274 5.24948C6.02274 5.24948 5.48718 5.8313 5.51994 5.91824C5.61821 6.15899 8.72342 9.68501 8.72178 9.68501C8.72014 9.68501 8.65463 9.75021 8.64972 9.75356L8.6186 9.78198C6.53208 11.6411 3.28275 11.5241 1.39439 9.45262C0.479868 8.44418 -0.00489343 7.10624 0.0467033 5.73302C0.0983001 4.35979 0.682031 3.0637 1.66954 2.12973Z" fill="url(#paint7_radial_11306_45208)"/>
<path d="M1.67241 2.12806C2.68119 1.19631 4.00793 0.705993 5.36722 0.762585C6.72651 0.819178 8.00973 1.41816 8.94084 2.43067C8.94084 2.43067 6.59391 4.78971 6.04362 5.23443C6.04362 5.23443 5.52772 5.80622 5.56539 5.90319C5.67512 6.17404 8.71646 9.66829 8.71646 9.66996L8.6444 9.73851L8.61328 9.76693C6.53167 11.6261 3.28234 11.504 1.40709 9.43255C0.49362 8.42789 0.00841454 7.09401 0.0581689 5.72422C0.107923 4.35444 0.688563 3.0609 1.67241 2.12806Z" fill="url(#paint8_radial_11306_45208)"/>
<path d="M1.6731 2.12635C2.68201 1.19532 4.00852 0.705613 5.36741 0.762514C6.7263 0.819415 8.00907 1.41838 8.93989 2.43063C8.93989 2.43063 6.67486 4.72447 6.05742 5.21935C6.05742 5.21935 5.56608 5.78278 5.60211 5.88811C5.72986 6.18403 8.71061 9.64652 8.70897 9.64819L8.63691 9.71507C8.63691 9.71507 8.60906 9.74182 8.60579 9.74516C6.52909 11.5976 3.28139 11.4706 1.39959 9.41079C0.948983 8.91416 0.598614 8.3318 0.36849 7.69694C0.138366 7.06208 0.0329947 6.38717 0.0583926 5.71074C0.0837904 5.03431 0.23946 4.36961 0.516513 3.7546C0.793566 3.13959 1.18657 2.58631 1.6731 2.12635Z" fill="url(#paint9_radial_11306_45208)"/>
<path d="M1.67477 2.12294C2.68393 1.19335 4.00997 0.704853 5.36808 0.762372C6.72618 0.819892 8.00803 1.41884 8.93829 2.43057C8.93829 2.43057 6.75678 4.66087 6.08365 5.20424C6.08365 5.20424 5.60706 5.75931 5.65292 5.87299C5.78722 6.20737 8.70245 9.63643 8.70245 9.6381L8.63039 9.70497L8.59927 9.73339C6.52585 11.5758 3.27979 11.4454 1.40454 9.38731C0.496881 8.38733 0.0154549 7.06028 0.0661312 5.698C0.116808 4.33572 0.695437 3.04977 1.67477 2.12294Z" fill="url(#paint10_radial_11306_45208)"/>
<path d="M1.67956 2.12138C2.68912 1.19241 4.01519 0.704475 5.37317 0.762301C6.73116 0.820128 8.01282 1.41911 8.94308 2.43068C8.94308 2.43068 6.84182 4.60414 6.10809 5.19098C6.10809 5.19098 5.65279 5.73434 5.70029 5.85974C5.84769 6.21585 8.70069 9.61982 8.69905 9.61982L8.62699 9.68837L8.59587 9.71679C6.529 11.5559 3.28294 11.4221 1.4126 9.37071C0.963414 8.87705 0.613968 8.29782 0.384254 7.66618C0.154539 7.03453 0.0490628 6.36285 0.073857 5.68955C0.0986512 5.01625 0.25323 4.35455 0.528751 3.74229C0.804273 3.13003 1.19533 2.57923 1.67956 2.12138Z" fill="url(#paint11_radial_11306_45208)"/>
<path d="M1.68256 2.11959C2.69216 1.19185 4.01764 0.704834 5.37484 0.762966C6.73203 0.821097 8.01289 1.41975 8.94281 2.43057C8.94281 2.43057 6.92507 4.53214 6.12912 5.17582C6.12912 5.17582 5.69347 5.71082 5.74588 5.84457C5.90965 6.2358 8.69387 9.60466 8.69387 9.60633L8.62181 9.67488C8.62181 9.67488 8.59396 9.69996 8.59233 9.7033C6.52873 11.5424 3.2843 11.3969 1.41724 9.3522C-0.449819 7.30748 -0.356466 4.00716 1.68256 2.11959Z" fill="url(#paint12_radial_11306_45208)"/>
<path d="M1.68262 2.11627C2.69254 1.18946 4.01791 0.703339 5.37472 0.762092C6.73152 0.820845 8.01181 1.41979 8.94122 2.43059C8.94122 2.43059 7.00537 4.46528 6.15701 5.15744C6.15701 5.15744 5.73938 5.68242 5.7967 5.8262C5.96866 6.24752 8.69228 9.58461 8.69228 9.58628L8.62022 9.65316L8.5891 9.68158C6.52387 11.509 3.27289 11.3668 1.41894 9.32714C-0.435021 7.28743 -0.351495 3.99882 1.68262 2.11627Z" fill="url(#paint13_radial_11306_45208)"/>
<path d="M1.68798 2.11461C2.69794 1.18902 4.02272 0.703822 5.37874 0.76288C6.73476 0.821938 8.01424 1.42056 8.94331 2.4306C8.94331 2.4306 7.09099 4.40343 6.17384 5.14575C6.17384 5.14575 5.77586 5.66236 5.83646 5.81451C6.02152 6.26425 8.67963 9.56958 8.67963 9.57125L8.60757 9.63812L8.57645 9.66655C6.52596 11.4872 3.27498 11.3401 1.4243 9.30709C-0.426385 7.27407 -0.342859 3.99047 1.68798 2.11461Z" fill="url(#paint14_radial_11306_45208)"/>
<path d="M1.68705 2.11303C2.69713 1.18816 4.02168 0.703566 5.3773 0.762933C6.73293 0.8223 8.01196 1.42091 8.94074 2.43069C8.94074 2.43069 7.17031 4.33999 6.19256 5.13079C6.19256 5.13079 5.81423 5.63236 5.87974 5.79955C6.07628 6.27604 8.67706 9.55462 8.67706 9.55629L8.60664 9.62317L8.57552 9.65159C6.52175 11.4589 3.27241 11.3151 1.42664 9.28545C-0.419128 7.25577 -0.340515 3.98388 1.68705 2.11303Z" fill="url(#paint15_radial_11306_45208)"/>
<path d="M1.68972 2.10961C2.7005 1.18647 4.02477 0.703309 5.37975 0.763286C6.73473 0.823262 8.01306 1.42163 8.94177 2.43061C8.94177 2.43061 7.25323 4.26969 6.2198 5.11567C6.2198 5.11567 5.86112 5.61724 5.92991 5.78443C6.13299 6.29603 8.67645 9.53783 8.66663 9.5395L8.59456 9.60638C8.58498 9.61671 8.57457 9.62622 8.56345 9.6348C6.52115 11.4438 3.27181 11.2916 1.43095 9.26698C-0.409901 7.24232 -0.331288 3.97544 1.68972 2.10961Z" fill="url(#paint16_radial_11306_45208)"/>
<path d="M1.69206 2.10793C2.70405 1.18618 4.02912 0.705129 5.38399 0.767614C6.73886 0.830099 8.01603 1.43116 8.94248 2.44231C8.94248 2.44231 7.33582 4.21117 6.23524 5.10563C6.23524 5.10563 5.89622 5.59382 5.96992 5.77439C6.19102 6.31775 8.66242 9.52946 8.66078 9.53113C8.65914 9.5328 8.60018 9.58965 8.58872 9.59801L8.55924 9.62643C6.52021 11.422 3.27251 11.2615 1.43493 9.24691C-0.402646 7.23228 -0.330584 3.96707 1.69206 2.10793Z" fill="url(#paint17_radial_11306_45208)"/>
<path d="M1.69533 2.10623C2.70696 1.18509 4.0314 0.704403 5.3856 0.766885C6.73981 0.829367 8.01637 1.43007 8.94247 2.44061C8.94247 2.44061 7.41934 4.15096 6.25652 5.09223C6.25652 5.09223 5.93716 5.57039 6.01413 5.76099C6.24834 6.33445 8.6575 9.51439 8.65422 9.51606L8.5838 9.58293L8.55268 9.61136C6.51857 11.4003 3.2725 11.2364 1.43984 9.22682C-0.392832 7.21721 -0.322408 3.95869 1.69533 2.10623Z" fill="url(#paint18_radial_11306_45208)"/>
<path d="M1.69923 2.09622C2.71096 1.17599 4.03495 0.695872 5.38863 0.758344C6.74231 0.820816 8.01847 1.42093 8.94473 2.43059C8.94473 2.43059 7.50349 4.07741 6.28171 5.06717C6.28171 5.06717 5.98036 5.5353 6.06225 5.73593C6.30792 6.33948 8.65321 9.48933 8.65157 9.491L8.57951 9.55788L8.54839 9.58463C6.52083 11.3786 3.27477 11.2097 1.44537 9.20845C-0.384016 7.20719 -0.313592 3.95035 1.69923 2.09622Z" fill="url(#paint19_radial_11306_45208)"/>
<path d="M1.69976 2.09623C2.71113 1.17661 4.0345 0.696854 5.38751 0.759324C6.74053 0.821794 8.01607 1.42154 8.94199 2.43061C8.12776 3.37307 7.24465 4.25111 6.30026 5.05715C6.30026 5.05715 6.01857 5.51692 6.10537 5.72591C6.3625 6.35956 8.64392 9.47597 8.64228 9.47931L8.57185 9.54451L8.54073 9.57294C6.51645 11.3568 3.27202 11.1846 1.44755 9.1884C-0.376933 7.19216 -0.311422 3.93531 1.69976 2.09623Z" fill="url(#paint20_radial_11306_45208)"/>
<path d="M1.70367 2.09618C2.71522 1.17696 4.0385 0.697472 5.39139 0.759936C6.74428 0.8224 8.01976 1.42187 8.9459 2.43056C8.14306 3.37045 7.2667 4.24215 6.32546 5.03704C6.32546 5.03704 6.06505 5.48678 6.16168 5.70579C6.43191 6.37455 8.6511 9.45585 8.64782 9.45752L8.5774 9.52439L8.54628 9.55282C6.51872 11.3334 3.27429 11.1578 1.45309 9.16828C-0.368117 7.17873 -0.302606 3.93526 1.70367 2.09618Z" fill="url(#paint21_radial_11306_45208)"/>
<path d="M1.7042 2.09622C2.71576 1.17841 4.03824 0.699812 5.39022 0.762262C6.74219 0.824712 8.01693 1.42328 8.94316 2.4306C8.15294 3.37116 7.28261 4.23837 6.34237 5.02203C6.34237 5.02203 6.10162 5.46341 6.19497 5.69079C6.47667 6.39131 8.63198 9.45255 8.63034 9.45255C8.6287 9.45255 8.57302 9.50772 8.55828 9.51943L8.5288 9.54618C6.51434 11.3117 3.27155 11.1244 1.45526 9.14827C-0.361032 7.17209 -0.300434 3.9353 1.7042 2.09622Z" fill="url(#paint22_radial_11306_45208)"/>
<path d="M1.7066 2.09626C2.71807 1.17896 4.04019 0.700673 5.39177 0.763119C6.74335 0.825565 8.01775 1.42382 8.94391 2.43064C8.16648 3.37291 7.30273 4.2373 6.36442 5.01204C6.36442 5.01204 6.14332 5.44339 6.23995 5.6808C6.53639 6.40473 8.62782 9.42918 8.62455 9.43086L8.55412 9.49606L8.523 9.52448C6.51346 11.2917 3.27231 11.1061 1.46093 9.12824C-0.350445 7.15039 -0.293123 3.91862 1.7066 2.09626Z" fill="url(#paint23_radial_11306_45208)"/>
<path d="M1.7084 2.09631C2.71978 1.17951 4.04155 0.701534 5.39273 0.763976C6.74392 0.826417 8.01798 1.42436 8.94408 2.43069C8.17993 3.37461 7.32207 4.23521 6.38424 4.99871C6.38424 4.99871 6.18279 5.42003 6.28433 5.66747C6.59223 6.42149 8.6198 9.41251 8.61816 9.41585L8.5461 9.48106L8.51498 9.50948C6.51362 11.2683 3.27247 11.0794 1.47092 9.10823C-0.330632 7.13706 -0.286412 3.91031 1.7084 2.09631Z" fill="url(#paint24_radial_11306_45208)"/>
<path d="M1.71344 2.09627C2.72465 1.18049 4.0457 0.703134 5.3961 0.765568C6.7465 0.828001 8.01988 1.42531 8.94585 2.43065C8.19602 3.3749 7.34571 4.23115 6.41058 4.98363C6.41058 4.98363 6.22715 5.39659 6.3336 5.65239C6.66116 6.43651 8.62648 9.39743 8.61502 9.40077L8.5446 9.46597L8.51348 9.49273C6.51376 11.2465 3.27424 11.0526 1.47269 9.08813C-0.328861 7.12365 -0.279728 3.90192 1.71344 2.09627Z" fill="url(#paint25_radial_11306_45208)"/>
<path d="M1.71254 2.09628C2.72384 1.1814 4.04445 0.704613 5.39433 0.767037C6.74421 0.82946 8.01719 1.42618 8.94331 2.43066C8.20856 3.37695 7.36444 4.22911 6.42933 4.96859C6.42933 4.96859 6.26555 5.37152 6.37528 5.63735C6.70284 6.45156 8.6092 9.38072 8.60593 9.38239C8.60265 9.38406 8.55188 9.43422 8.5355 9.44759L8.50439 9.47602C6.51122 11.2248 3.2717 11.0275 1.47015 9.06807C-0.331401 7.10861 -0.275717 3.89356 1.71254 2.09628Z" fill="url(#paint26_radial_11306_45208)"/>
<path d="M1.71759 2.08627C2.73004 1.17316 4.05103 0.698438 5.40053 0.762731C6.75004 0.827024 8.02198 1.42528 8.94671 2.43068C8.94671 2.43068 8.16386 3.56757 6.45239 4.95357C6.45239 4.95357 6.30827 5.34814 6.42291 5.62233C6.76684 6.45827 8.60442 9.36569 8.60278 9.36736L8.53072 9.43257L8.50124 9.46099C6.51135 11.2031 3.27347 11.0008 1.47193 9.04803C-0.329623 7.09526 -0.269025 3.88523 1.71759 2.08627Z" fill="url(#paint27_radial_11306_45208)"/>
<path d="M1.71788 2.08293C2.73084 1.17115 4.05163 0.697574 5.40063 0.762482C6.74962 0.827389 8.02093 1.42568 8.94537 2.43069C8.94537 2.43069 8.24605 3.49735 6.47234 4.93853C6.40625 5.15634 6.40625 5.38947 6.47234 5.60728C6.82937 6.48168 8.60144 9.34731 8.60144 9.35065L8.53102 9.41585L8.4999 9.44261C6.50837 11.1814 3.27213 10.9757 1.48205 9.02965C-0.30804 7.08356 -0.26382 3.87855 1.71788 2.08293Z" fill="url(#paint28_radial_11306_45208)"/>
<path d="M1.72324 2.08126C2.73586 1.16989 4.05624 0.696707 5.4047 0.76193C6.75316 0.827153 8.02379 1.42566 8.94746 2.43068C8.94746 2.43068 8.33002 3.43382 6.4908 4.91679C6.43293 5.13675 6.4392 5.36917 6.50882 5.58555C6.87732 6.50174 8.5937 9.33727 8.59043 9.34062L8.52 9.40582L8.49052 9.43257C6.51045 11.1596 3.27422 10.9573 1.48741 9.00958C-0.299405 7.06183 -0.255185 3.87018 1.72324 2.08126Z" fill="url(#paint29_radial_11306_45208)"/>
<path d="M1.72534 2.07957C2.73807 1.16892 4.05821 0.696336 5.40628 0.761867C6.75435 0.827399 8.02453 1.4259 8.94791 2.43067C8.94791 2.43067 8.414 3.37529 6.51746 4.91009C6.47184 5.1327 6.48599 5.36376 6.5584 5.57884C6.94 6.51343 8.58924 9.31719 8.58597 9.32053L8.51554 9.38407L8.48442 9.41249C6.50927 11.1379 3.27467 10.9222 1.49278 8.9895C-0.31696 7.03004 -0.249812 3.86181 1.72534 2.07957Z" fill="url(#paint30_radial_11306_45208)"/>
<path d="M1.72896 2.07629C2.74211 1.16746 4.06169 0.696337 5.40886 0.762478C6.75603 0.828619 8.02524 1.42684 8.94827 2.43073C8.94827 2.43073 8.49624 3.30513 6.5391 4.88841C6.50533 5.1134 6.52787 5.34346 6.60461 5.55717C6.99768 6.52185 8.58304 9.29552 8.57977 9.29719L8.50934 9.36239L8.47823 9.38914C6.5129 11.1028 3.2783 10.8938 1.4964 8.9578C-0.285497 7.02174 -0.242914 3.85351 1.72896 2.07629Z" fill="url(#paint31_radial_11306_45208)"/>
<path d="M1.72919 2.07451C2.74272 1.16629 4.06234 0.695724 5.40939 0.762171C6.75644 0.828619 8.02547 1.42688 8.94849 2.43063C8.94849 2.43063 8.57835 3.23982 6.56062 4.87326C6.53852 5.10017 6.56881 5.32921 6.64906 5.54202C7.05359 6.55017 8.57508 9.28538 8.5718 9.29374L8.50138 9.35895L8.4719 9.3857C6.50657 11.0927 3.27361 10.8703 1.49991 8.95101C-0.301644 7.00158 -0.23777 3.84505 1.72919 2.07451Z" fill="url(#paint32_radial_11306_45208)"/>
<path d="M1.7306 2.07292C2.74397 1.16552 4.06309 0.695599 5.40948 0.762355C6.75587 0.829112 8.02417 1.42732 8.94663 2.43071C8.94663 2.43071 8.65838 3.18306 6.58005 4.86498C6.57077 5.09341 6.60872 5.32127 6.69141 5.53374C7.10905 6.5653 8.5683 9.27544 8.56503 9.28547L8.4946 9.349L8.46348 9.37575C6.50307 11.0711 3.27174 10.8453 1.50131 8.92935C-0.295325 6.98662 -0.234727 3.83677 1.7306 2.07292Z" fill="url(#paint33_radial_11306_45208)"/>
<path d="M1.73364 2.06947C2.74751 1.16339 4.06643 0.694619 5.41231 0.761989C6.75819 0.829359 8.02585 1.42761 8.94802 2.4306C8.94802 2.4306 8.7433 3.11775 6.60273 4.84982C6.60626 5.08221 6.65237 5.31187 6.73867 5.52694C7.1694 6.5819 8.56315 9.26028 8.55987 9.26362L8.48945 9.32715L8.45997 9.3539C6.50447 11.0492 3.27314 10.8185 1.50762 8.90918C-0.285735 6.97313 -0.226776 3.8283 1.73364 2.06947Z" fill="url(#paint34_radial_11306_45208)"/>
<path d="M1.73872 2.06779C2.75316 1.16528 4.07091 0.699497 5.41484 0.768406C6.75878 0.837314 8.02417 1.43554 8.94492 2.43728C8.94492 2.43728 8.82209 3.05421 6.62092 4.83478C6.63993 5.06793 6.69521 5.2965 6.7847 5.51189C7.22853 6.59862 8.56004 9.24523 8.55677 9.24857L8.48634 9.3121C8.47525 9.3201 8.46484 9.32905 8.45523 9.33885C6.50464 11.0275 3.27495 10.7901 1.51435 8.88911C-0.275738 6.95808 -0.220054 3.82161 1.73872 2.06779Z" fill="url(#paint35_radial_11306_45208)"/>
<path d="M1.73808 2.06623C2.75255 1.16352 4.07051 0.697772 5.41457 0.766999C6.75863 0.836226 8.02398 1.43503 8.94429 2.43739C8.94429 2.43739 8.90498 2.99078 6.64158 4.81983C6.67373 5.05324 6.73538 5.2814 6.82501 5.49862C7.28358 6.61043 8.55122 9.22862 8.54795 9.23196L8.47752 9.29549C8.4677 9.29549 8.45623 9.31556 8.4464 9.32224C6.50073 11.0058 3.27268 10.7668 1.51535 8.86916C-0.269825 6.94481 -0.215779 3.81335 1.73808 2.06623Z" fill="url(#paint36_radial_11306_45208)"/>
<path d="M1.74321 2.06282C2.75845 1.16133 4.07647 0.696677 5.4203 0.766515C6.76412 0.836353 8.02911 1.43524 8.94941 2.43732C8.94941 2.43732 8.99199 2.9322 6.66799 4.80639C6.71559 5.03867 6.78581 5.2655 6.87763 5.48351C7.34439 6.63043 8.54979 9.2135 8.54488 9.21685C8.53997 9.22019 8.49738 9.26199 8.47445 9.28038L8.44497 9.30713C6.50422 10.9874 3.27453 10.7399 1.52211 8.84903C-0.261418 6.9297 -0.207372 3.80493 1.74321 2.06282Z" fill="url(#paint37_radial_11306_45208)"/>
<path d="M1.74317 2.06111C2.75863 1.15964 4.07699 0.695313 5.42094 0.765781C6.7649 0.83625 8.02971 1.43603 8.94936 2.43896C8.94936 2.43896 9.07383 2.86195 6.68924 4.79131C6.75046 5.02263 6.82707 5.24942 6.91852 5.4701C7.39839 6.64043 8.53992 9.19843 8.53664 9.20177L8.46622 9.2653L8.4351 9.29205C6.50089 10.9573 3.27285 10.7132 1.52371 8.83061C-0.254914 6.91462 -0.204143 3.79654 1.74317 2.06111Z" fill="url(#paint38_radial_11306_45208)"/>
<path d="M1.74766 2.05951C2.76334 1.15825 4.08182 0.694208 5.42578 0.764989C6.76974 0.835769 8.03444 1.43585 8.95387 2.43903C8.95387 2.43903 9.15695 2.79681 6.71339 4.77132C6.71339 4.77132 6.80347 5.05219 6.96725 5.4501C7.45858 6.65721 8.53623 9.17842 8.53296 9.18177L8.46253 9.2453L8.43305 9.27038C6.50048 10.9406 3.27407 10.6881 1.52984 8.81061C-0.245505 6.89963 -0.196372 3.78824 1.74766 2.05951Z" fill="url(#paint39_radial_11306_45208)"/>
<path d="M8.52372 9.17169C6.6108 10.9272 3.30414 10.6948 1.53207 8.78381C-0.240001 6.87283 -0.192506 3.76813 1.74825 2.04943C2.76451 1.14898 4.08315 0.685783 5.42699 0.757181C6.77084 0.828579 8.03525 1.42902 8.95445 2.43229C8.95445 2.43229 9.24434 2.72654 6.73691 4.75455C6.73199 4.76123 8.53027 9.16667 8.52372 9.17169Z" fill="url(#paint40_radial_11306_45208)"/>
<path d="M6.66008 4.81775C5.87558 5.4748 4.91094 6.24889 3.78906 7.1166C4.62248 8.03665 5.59174 8.81795 6.66171 9.43218C7.5805 9.93374 8.29949 10.0274 8.65161 9.70971C9.00373 9.39205 8.96115 8.65976 8.5517 7.70344C8.06693 6.64989 7.42921 5.67705 6.66008 4.81775Z" fill="url(#paint41_linear_11306_45208)"/>
<path d="M6.732 4.75256L6.33893 5.08694C7.05863 5.89458 7.65693 6.80678 8.11428 7.79374C8.51553 8.73668 8.5057 9.20983 8.37632 9.32853C8.24694 9.44724 7.68846 9.47733 6.79587 8.99416C5.80711 8.42174 4.91285 7.69391 4.14595 6.83741L3.70703 7.17179L3.81021 7.27378C5.66908 9.23491 7.68027 10.3517 8.56466 9.94546C8.59087 9.93209 8.61707 9.91871 8.64164 9.90367H8.65147C8.68567 9.882 8.718 9.85739 8.74809 9.8301C8.77997 9.80066 8.80904 9.76819 8.8349 9.73313C9.41303 8.95905 8.53518 6.8742 6.78604 4.83114L6.732 4.75256Z" fill="#84EEB1"/>
<defs>
<radialGradient id="paint0_radial_11306_45208" cx="0" cy="0" r="1" gradientUnits="userSpaceOnUse" gradientTransform="translate(6.46204 1.34487) rotate(-2.33828) scale(23.579 17.8112)">
<stop stop-color="#03BA50"/>
<stop offset="0.8" stop-color="#01B64E"/>
</radialGradient>
<radialGradient id="paint1_radial_11306_45208" cx="0" cy="0" r="1" gradientUnits="userSpaceOnUse" gradientTransform="translate(6.46129 1.34289) rotate(-2.33828) scale(23.5298 17.774)">
<stop stop-color="#04BC50"/>
<stop offset="0.8" stop-color="#01B34D"/>
</radialGradient>
<radialGradient id="paint2_radial_11306_45208" cx="0" cy="0" r="1" gradientUnits="userSpaceOnUse" gradientTransform="translate(6.45408 1.3474) rotate(-2.33828) scale(23.4806 17.7369)">
<stop stop-color="#06BD51"/>
<stop offset="0.72" stop-color="#02B24C"/>
<stop offset="0.8" stop-color="#01B04B"/>
</radialGradient>
<radialGradient id="paint3_radial_11306_45208" cx="0" cy="0" r="1" gradientUnits="userSpaceOnUse" gradientTransform="translate(6.44674 1.35504) rotate(-2.33828) scale(23.4315 17.6997)">
<stop stop-color="#08BF52"/>
<stop offset="0.56" stop-color="#04B44D"/>
<stop offset="0.8" stop-color="#01AD4A"/>
</radialGradient>
<radialGradient id="paint4_radial_11306_45208" cx="0" cy="0" r="1" gradientUnits="userSpaceOnUse" gradientTransform="translate(6.43494 1.36221) rotate(-2.33828) scale(23.3823 17.6626)">
<stop stop-color="#0AC053"/>
<stop offset="0.48" stop-color="#05B54E"/>
<stop offset="0.8" stop-color="#01AA49"/>
</radialGradient>
<radialGradient id="paint5_radial_11306_45208" cx="0" cy="0" r="1" gradientUnits="userSpaceOnUse" gradientTransform="translate(6.427 1.38036) rotate(-1.75414) scale(23.323 17.6235)">
<stop stop-color="#0BC253"/>
<stop offset="0.42" stop-color="#07B74E"/>
<stop offset="0.8" stop-color="#01A848"/>
</radialGradient>
<radialGradient id="paint6_radial_11306_45208" cx="0" cy="0" r="1" gradientUnits="userSpaceOnUse" gradientTransform="translate(6.41096 1.38489) rotate(-1.75413) scale(23.2738 17.5863)">
<stop stop-color="#0DC354"/>
<stop offset="0.37" stop-color="#08B84F"/>
<stop offset="0.8" stop-color="#01A546"/>
</radialGradient>
<radialGradient id="paint7_radial_11306_45208" cx="0" cy="0" r="1" gradientUnits="userSpaceOnUse" gradientTransform="translate(6.58649 1.38957) rotate(-1.75414) scale(23.2247 17.5421)">
<stop stop-color="#0FC555"/>
<stop offset="0.33" stop-color="#0ABA50"/>
<stop offset="0.8" stop-color="#01A245"/>
</radialGradient>
<radialGradient id="paint8_radial_11306_45208" cx="0" cy="0" r="1" gradientUnits="userSpaceOnUse" gradientTransform="translate(6.56882 1.39804) rotate(-1.73678) scale(23.407 17.505)">
<stop stop-color="#11C656"/>
<stop offset="0.3" stop-color="#0CBB51"/>
<stop offset="0.8" stop-color="#019F44"/>
</radialGradient>
<radialGradient id="paint9_radial_11306_45208" cx="0" cy="0" r="1" gradientUnits="userSpaceOnUse" gradientTransform="translate(6.56213 1.40658) rotate(-1.73678) scale(23.3574 17.4678)">
<stop stop-color="#12C856"/>
<stop offset="0.28" stop-color="#0EBD51"/>
<stop offset="0.77" stop-color="#029E44"/>
<stop offset="0.8" stop-color="#019C43"/>
</radialGradient>
<radialGradient id="paint10_radial_11306_45208" cx="0" cy="0" r="1" gradientUnits="userSpaceOnUse" gradientTransform="translate(6.55477 1.4181) rotate(-1.73678) scale(23.3061 17.4295)">
<stop stop-color="#14C957"/>
<stop offset="0.26" stop-color="#0FBE52"/>
<stop offset="0.72" stop-color="#049F44"/>
<stop offset="0.8" stop-color="#019941"/>
</radialGradient>
<radialGradient id="paint11_radial_11306_45208" cx="0" cy="0" r="1" gradientUnits="userSpaceOnUse" gradientTransform="translate(6.54728 1.43243) rotate(-1.73678) scale(23.2564 17.3923)">
<stop stop-color="#16CB58"/>
<stop offset="0.24" stop-color="#11C053"/>
<stop offset="0.66" stop-color="#06A145"/>
<stop offset="0.8" stop-color="#019640"/>
</radialGradient>
<radialGradient id="paint12_radial_11306_45208" cx="0" cy="0" r="1" gradientUnits="userSpaceOnUse" gradientTransform="translate(6.53474 1.44781) rotate(-1.73678) scale(23.2068 17.3552)">
<stop stop-color="#18CC59"/>
<stop offset="0.23" stop-color="#13C154"/>
<stop offset="0.62" stop-color="#07A246"/>
<stop offset="0.8" stop-color="#01933F"/>
</radialGradient>
<radialGradient id="paint13_radial_11306_45208" cx="0" cy="0" r="1" gradientUnits="userSpaceOnUse" gradientTransform="translate(6.52089 1.46634) rotate(-1.73678) scale(23.1555 17.3168)">
<stop stop-color="#19CD59"/>
<stop offset="0.21" stop-color="#15C254"/>
<stop offset="0.59" stop-color="#09A347"/>
<stop offset="0.8" stop-color="#01903E"/>
</radialGradient>
<radialGradient id="paint14_radial_11306_45208" cx="0" cy="0" r="1" gradientUnits="userSpaceOnUse" gradientTransform="translate(6.50743 1.4862) rotate(-1.73678) scale(23.1059 17.2797)">
<stop stop-color="#1BCF5A"/>
<stop offset="0.2" stop-color="#17C455"/>
<stop offset="0.56" stop-color="#0BA547"/>
<stop offset="0.8" stop-color="#018D3C"/>
</radialGradient>
<radialGradient id="paint15_radial_11306_45208" cx="0" cy="0" r="1" gradientUnits="userSpaceOnUse" gradientTransform="translate(6.48772 1.41364) rotate(-1.15805) scale(23.0503 17.2424)">
<stop stop-color="#1DD05B"/>
<stop offset="0.19" stop-color="#18C556"/>
<stop offset="0.54" stop-color="#0CA648"/>
<stop offset="0.8" stop-color="#018B3B"/>
</radialGradient>
<radialGradient id="paint16_radial_11306_45208" cx="0" cy="0" r="1" gradientUnits="userSpaceOnUse" gradientTransform="translate(6.46833 1.42865) rotate(-1.15805) scale(22.999 17.204)">
<stop stop-color="#1ED25B"/>
<stop offset="0.18" stop-color="#1AC756"/>
<stop offset="0.51" stop-color="#0EA848"/>
<stop offset="0.8" stop-color="#01883A"/>
</radialGradient>
<radialGradient id="paint17_radial_11306_45208" cx="0" cy="0" r="1" gradientUnits="userSpaceOnUse" gradientTransform="translate(6.45026 1.44332) rotate(-1.15805) scale(22.9494 17.1669)">
<stop stop-color="#20D35C"/>
<stop offset="0.18" stop-color="#1BC857"/>
<stop offset="0.49" stop-color="#0FA949"/>
<stop offset="0.8" stop-color="#018539"/>
</radialGradient>
<radialGradient id="paint18_radial_11306_45208" cx="0" cy="0" r="1" gradientUnits="userSpaceOnUse" gradientTransform="translate(6.42823 1.46389) rotate(-1.15805) scale(22.8998 17.1298)">
<stop stop-color="#22D55D"/>
<stop offset="0.17" stop-color="#1DCA58"/>
<stop offset="0.47" stop-color="#11AB4A"/>
<stop offset="0.8" stop-color="#018237"/>
</radialGradient>
<radialGradient id="paint19_radial_11306_45208" cx="0" cy="0" r="1" gradientUnits="userSpaceOnUse" gradientTransform="translate(6.40515 1.4829) rotate(-1.15805) scale(22.8485 17.0914)">
<stop stop-color="#24D65E"/>
<stop offset="0.16" stop-color="#1FCB59"/>
<stop offset="0.45" stop-color="#13AC4B"/>
<stop offset="0.8" stop-color="#017F36"/>
</radialGradient>
<radialGradient id="paint20_radial_11306_45208" cx="0" cy="0" r="1" gradientUnits="userSpaceOnUse" gradientTransform="translate(6.37547 1.50612) rotate(-1.15805) scale(22.7988 17.0543)">
<stop stop-color="#25D85E"/>
<stop offset="0.15" stop-color="#20CD59"/>
<stop offset="0.43" stop-color="#14AE4B"/>
<stop offset="0.79" stop-color="#017D36"/>
<stop offset="0.8" stop-color="#007C35"/>
</radialGradient>
<radialGradient id="paint21_radial_11306_45208" cx="0" cy="0" r="1" gradientUnits="userSpaceOnUse" gradientTransform="translate(6.87344 1.53225) rotate(-1.15805) scale(22.7492 17.0126)">
<stop stop-color="#27D95F"/>
<stop offset="0.15" stop-color="#22CE5A"/>
<stop offset="0.42" stop-color="#16AF4C"/>
<stop offset="0.77" stop-color="#027E36"/>
<stop offset="0.8" stop-color="#007934"/>
</radialGradient>
<radialGradient id="paint22_radial_11306_45208" cx="0" cy="0" r="1" gradientUnits="userSpaceOnUse" gradientTransform="translate(6.70127 1.55931) rotate(-1.1467) scale(22.9226 16.9743)">
<stop stop-color="#29DB60"/>
<stop offset="0.14" stop-color="#24D05B"/>
<stop offset="0.4" stop-color="#18B14D"/>
<stop offset="0.74" stop-color="#048037"/>
<stop offset="0.8" stop-color="#007632"/>
</radialGradient>
<radialGradient id="paint23_radial_11306_45208" cx="0" cy="0" r="1" gradientUnits="userSpaceOnUse" gradientTransform="translate(6.68203 1.58938) rotate(-1.1467) scale(22.8724 16.9371)">
<stop stop-color="#2BDC61"/>
<stop offset="0.14" stop-color="#26D15C"/>
<stop offset="0.39" stop-color="#1AB24E"/>
<stop offset="0.71" stop-color="#068138"/>
<stop offset="0.8" stop-color="#007331"/>
</radialGradient>
<radialGradient id="paint24_radial_11306_45208" cx="0" cy="0" r="1" gradientUnits="userSpaceOnUse" gradientTransform="translate(6.66218 1.62239) rotate(-1.1467) scale(22.8206 16.8988)">
<stop stop-color="#2CDE61"/>
<stop offset="0.13" stop-color="#27D35C"/>
<stop offset="0.37" stop-color="#1BB44E"/>
<stop offset="0.69" stop-color="#088339"/>
<stop offset="0.8" stop-color="#007030"/>
</radialGradient>
<radialGradient id="paint25_radial_11306_45208" cx="0" cy="0" r="1" gradientUnits="userSpaceOnUse" gradientTransform="translate(6.64226 1.45497) rotate(-0.573406) scale(22.7671 16.862)">
<stop stop-color="#2EDF62"/>
<stop offset="0.13" stop-color="#29D45D"/>
<stop offset="0.37" stop-color="#1DB54F"/>
<stop offset="0.67" stop-color="#098439"/>
<stop offset="0.8" stop-color="#006E2F"/>
</radialGradient>
<radialGradient id="paint26_radial_11306_45208" cx="0" cy="0" r="1" gradientUnits="userSpaceOnUse" gradientTransform="translate(6.61467 1.48114) rotate(-0.573407) scale(22.717 16.8248)">
<stop stop-color="#30E163"/>
<stop offset="0.13" stop-color="#2BD65E"/>
<stop offset="0.35" stop-color="#1FB750"/>
<stop offset="0.65" stop-color="#0B8639"/>
<stop offset="0.8" stop-color="#006B2D"/>
</radialGradient>
<radialGradient id="paint27_radial_11306_45208" cx="0" cy="0" r="1" gradientUnits="userSpaceOnUse" gradientTransform="translate(6.59139 1.51026) rotate(-0.573407) scale(22.6652 16.7865)">
<stop stop-color="#31E263"/>
<stop offset="0.12" stop-color="#2CD75E"/>
<stop offset="0.34" stop-color="#20B850"/>
<stop offset="0.63" stop-color="#0D873A"/>
<stop offset="0.8" stop-color="#00682C"/>
</radialGradient>
<radialGradient id="paint28_radial_11306_45208" cx="0" cy="0" r="1" gradientUnits="userSpaceOnUse" gradientTransform="translate(6.56166 1.54062) rotate(-0.573407) scale(22.6151 16.7494)">
<stop stop-color="#33E364"/>
<stop offset="0.12" stop-color="#2ED85F"/>
<stop offset="0.34" stop-color="#22B951"/>
<stop offset="0.62" stop-color="#0E883B"/>
<stop offset="0.8" stop-color="#00652B"/>
</radialGradient>
<radialGradient id="paint29_radial_11306_45208" cx="0" cy="0" r="1" gradientUnits="userSpaceOnUse" gradientTransform="translate(6.53369 1.57349) rotate(-0.573407) scale(22.5633 16.711)">
<stop stop-color="#35E565"/>
<stop offset="0.12" stop-color="#30DA60"/>
<stop offset="0.33" stop-color="#24BB52"/>
<stop offset="0.6" stop-color="#108A3C"/>
<stop offset="0.8" stop-color="#00622A"/>
</radialGradient>
<radialGradient id="paint30_radial_11306_45208" cx="0" cy="0" r="1" gradientUnits="userSpaceOnUse" gradientTransform="translate(6.50408 1.6076) rotate(-0.573407) scale(22.5131 16.6739)">
<stop stop-color="#37E666"/>
<stop offset="0.11" stop-color="#32DB61"/>
<stop offset="0.32" stop-color="#26BC53"/>
<stop offset="0.59" stop-color="#128B3C"/>
<stop offset="0.8" stop-color="#005F28"/>
</radialGradient>
<radialGradient id="paint31_radial_11306_45208" cx="0" cy="0" r="1" gradientUnits="userSpaceOnUse" gradientTransform="translate(6.471 1.64474) rotate(-0.573407) scale(22.4614 16.6355)">
<stop stop-color="#38E866"/>
<stop offset="0.11" stop-color="#33DD61"/>
<stop offset="0.31" stop-color="#27BE53"/>
<stop offset="0.57" stop-color="#148D3D"/>
<stop offset="0.8" stop-color="#005C27"/>
</radialGradient>
<radialGradient id="paint32_radial_11306_45208" cx="0" cy="0" r="1" gradientUnits="userSpaceOnUse" gradientTransform="translate(6.43453 1.68421) rotate(-0.573407) scale(22.4112 16.5984)">
<stop stop-color="#3AE967"/>
<stop offset="0.11" stop-color="#35DE62"/>
<stop offset="0.3" stop-color="#29BF54"/>
<stop offset="0.56" stop-color="#158E3E"/>
<stop offset="0.8" stop-color="#005926"/>
</radialGradient>
<radialGradient id="paint33_radial_11306_45208" cx="0" cy="0" r="1" gradientUnits="userSpaceOnUse" gradientTransform="translate(6.39755 1.72513) rotate(-0.573407) scale(22.3611 16.5613)">
<stop stop-color="#3CEB68"/>
<stop offset="0.11" stop-color="#37E063"/>
<stop offset="0.29" stop-color="#2BC155"/>
<stop offset="0.54" stop-color="#17903F"/>
<stop offset="0.8" stop-color="#005625"/>
</radialGradient>
<radialGradient id="paint34_radial_11306_45208" cx="0" cy="0" r="1" gradientUnits="userSpaceOnUse" gradientTransform="translate(6.35884 1.76883) rotate(-0.573407) scale(22.3093 16.5229)">
<stop stop-color="#3EEC69"/>
<stop offset="0.1" stop-color="#39E164"/>
<stop offset="0.29" stop-color="#2DC256"/>
<stop offset="0.53" stop-color="#19913F"/>
<stop offset="0.8" stop-color="#005323"/>
</radialGradient>
<radialGradient id="paint35_radial_11306_45208" cx="0" cy="0" r="1" gradientUnits="userSpaceOnUse" gradientTransform="translate(6.32057 1.50868) scale(22.2581 16.4844)">
<stop stop-color="#3FEE69"/>
<stop offset="0.1" stop-color="#3AE364"/>
<stop offset="0.28" stop-color="#2EC456"/>
<stop offset="0.52" stop-color="#1A9340"/>
<stop offset="0.8" stop-color="#005122"/>
</radialGradient>
<radialGradient id="paint36_radial_11306_45208" cx="0" cy="0" r="1" gradientUnits="userSpaceOnUse" gradientTransform="translate(6.84376 1.54537) scale(22.424 16.4461)">
<stop stop-color="#41EF6A"/>
<stop offset="0.1" stop-color="#3CE465"/>
<stop offset="0.28" stop-color="#30C557"/>
<stop offset="0.51" stop-color="#1C9441"/>
<stop offset="0.79" stop-color="#015022"/>
<stop offset="0.8" stop-color="#004E21"/>
</radialGradient>
<radialGradient id="paint37_radial_11306_45208" cx="0" cy="0" r="1" gradientUnits="userSpaceOnUse" gradientTransform="translate(6.81323 1.58479) scale(22.3751 16.4102)">
<stop stop-color="#43F16B"/>
<stop offset="0.1" stop-color="#3EE666"/>
<stop offset="0.27" stop-color="#32C758"/>
<stop offset="0.5" stop-color="#1E9642"/>
<stop offset="0.77" stop-color="#035223"/>
<stop offset="0.8" stop-color="#004B20"/>
</radialGradient>
<radialGradient id="paint38_radial_11306_45208" cx="0" cy="0" r="1" gradientUnits="userSpaceOnUse" gradientTransform="translate(6.7808 1.62672) scale(22.3245 16.3731)">
<stop stop-color="#45F26C"/>
<stop offset="0.1" stop-color="#40E767"/>
<stop offset="0.27" stop-color="#34C859"/>
<stop offset="0.49" stop-color="#209742"/>
<stop offset="0.76" stop-color="#055323"/>
<stop offset="0.8" stop-color="#00481E"/>
</radialGradient>
<radialGradient id="paint39_radial_11306_45208" cx="0" cy="0" r="1" gradientUnits="userSpaceOnUse" gradientTransform="translate(6.74955 1.67166) scale(22.2722 16.3348)">
<stop stop-color="#46F46C"/>
<stop offset="0.09" stop-color="#41E967"/>
<stop offset="0.26" stop-color="#35CA59"/>
<stop offset="0.48" stop-color="#229943"/>
<stop offset="0.74" stop-color="#065524"/>
<stop offset="0.8" stop-color="#00451D"/>
</radialGradient>
<radialGradient id="paint40_radial_11306_45208" cx="0" cy="0" r="1" gradientUnits="userSpaceOnUse" gradientTransform="translate(6.71766 1.71896) scale(22.2199 16.2964)">
<stop stop-color="#48F56D"/>
<stop offset="0.09" stop-color="#43EA68"/>
<stop offset="0.25" stop-color="#37CB5A"/>
<stop offset="0.47" stop-color="#239A44"/>
<stop offset="0.73" stop-color="#085625"/>
<stop offset="0.8" stop-color="#00421C"/>
</radialGradient>
<linearGradient id="paint41_linear_11306_45208" x1="7.07935" y1="13.4364" x2="5.08408" y2="-0.57957" gradientUnits="userSpaceOnUse">
<stop offset="0.1" stop-color="#FF8475"/>
<stop offset="0.37" stop-color="#E84E43"/>
<stop offset="0.6" stop-color="#D6261F"/>
<stop offset="0.79" stop-color="#CC0E08"/>
<stop offset="0.9" stop-color="#C80500"/>
</linearGradient>
</defs>
</svg>
